<svg xmlns="http://www.w3.org/2000/svg" viewBox="0 0 110.95 40.91"><defs><style>.cls-1{fill:#d3b056;}.cls-2{fill:#fff;}</style></defs><title>Ativo 2</title><g id="Camada_2" data-name="Camada 2"><g id="Camada_1-2" data-name="Camada 1"><path class="cls-1" d="M33.78,16.45H26.3l-1.21,3.48H20.45L27.88.25h4.64l7.25,19.68H35Zm-1.33-3.93-2.37-7-2.42,7Z"/><path class="cls-1" d="M48.46,4.21c-1.16,0-1.92.45-1.92,1.35,0,3.26,9.71,1.4,9.71,8.48,0,4-3.32,6.06-7.42,6.06A13.33,13.33,0,0,1,40.32,17l1.87-4a11.41,11.41,0,0,0,6.69,3c1.42,0,2.32-.56,2.32-1.6C51.2,11,41.48,13,41.48,6c0-3.68,2.92-6,7.37-6a13.5,13.5,0,0,1,7.37,2.22L54.41,6.32A13.74,13.74,0,0,0,48.46,4.21Z"/><rect class="cls-1" x="59.14" y="0.25" width="5.05" height="19.68"/><polygon class="cls-1" points="73.27 0.25 82.65 12.1 82.65 0.25 87.66 0.25 87.66 19.93 82.94 19.93 73.56 8.14 73.56 19.93 68.52 19.93 68.52 0.25 73.27 0.25"/><path class="cls-1" d="M100.71,0a10.09,10.09,0,0,1,4,.79,10.53,10.53,0,0,1,3.25,2.15,10.06,10.06,0,0,1,2.2,3.2,9.68,9.68,0,0,1,.81,3.92,9.69,9.69,0,0,1-.81,3.92,10.06,10.06,0,0,1-2.2,3.2,10.52,10.52,0,0,1-3.25,2.15,10.36,10.36,0,0,1-8,0,10.39,10.39,0,0,1-3.24-2.15A10.24,10.24,0,0,1,91.3,14a9.62,9.62,0,0,1-.81-3.92,9.62,9.62,0,0,1,.81-3.92,10.24,10.24,0,0,1,2.18-3.2A10.4,10.4,0,0,1,96.73.79,10.09,10.09,0,0,1,100.71,0Zm0,15.49a5.45,5.45,0,0,0,2.15-.42,5.51,5.51,0,0,0,2.94-2.89,5.38,5.38,0,0,0,0-4.22,5.49,5.49,0,0,0-2.94-2.89,5.62,5.62,0,0,0-4.29,0,5.57,5.57,0,0,0-1.75,1.16A5.51,5.51,0,0,0,95.64,8a5.4,5.4,0,0,0,0,4.22,5.5,5.5,0,0,0,1.19,1.73,5.58,5.58,0,0,0,1.75,1.17A5.44,5.44,0,0,0,100.72,15.49Z"/><path class="cls-1" d="M10.22,15.49a5.45,5.45,0,0,0,2.15-.42,5.55,5.55,0,0,0,1.75-1.17,5.39,5.39,0,0,0,1-1.27h5A9.56,9.56,0,0,1,19.64,14a10.09,10.09,0,0,1-2.2,3.2,10.55,10.55,0,0,1-3.25,2.15,10.07,10.07,0,0,1-4,.8,10.05,10.05,0,0,1-4-.8A10.36,10.36,0,0,1,3,17.18,10.21,10.21,0,0,1,.81,14,9.62,9.62,0,0,1,0,10.06,9.61,9.61,0,0,1,.81,6.14,10.21,10.21,0,0,1,3,2.95,10.37,10.37,0,0,1,6.23.79a10.09,10.09,0,0,1,4-.79,10.1,10.1,0,0,1,4,.79,10.56,10.56,0,0,1,3.25,2.15,10.09,10.09,0,0,1,2.2,3.2,9.82,9.82,0,0,1,.47,1.35h-5a5.46,5.46,0,0,0-1-1.27,5.55,5.55,0,0,0-1.75-1.16,5.62,5.62,0,0,0-4.29,0A5.6,5.6,0,0,0,6.32,6.22,5.5,5.5,0,0,0,5.14,8a5.38,5.38,0,0,0,0,4.22A5.49,5.49,0,0,0,6.32,13.9a5.61,5.61,0,0,0,1.76,1.17A5.44,5.44,0,0,0,10.22,15.49Z"/><path class="cls-2" d="M10.81,31.31A6.68,6.68,0,0,1,10.28,34a7,7,0,0,1-1.49,2.2,7.17,7.17,0,0,1-2.21,1.5,6.86,6.86,0,0,1-2.7.58v2.64H0V24.34H3.87a6.86,6.86,0,0,1,2.7.59,7.38,7.38,0,0,1,2.21,1.51,7,7,0,0,1,1.49,2.2A6.68,6.68,0,0,1,10.81,31.31ZM3.87,34.44a3.1,3.1,0,0,0,1.2-.28,3.37,3.37,0,0,0,1-.68,3.11,3.11,0,0,0,.65-1,3.11,3.11,0,0,0,0-2.4,3.16,3.16,0,0,0-.65-1,3.37,3.37,0,0,0-1-.68,3.14,3.14,0,0,0-1.2-.28Z"/><path class="cls-2" d="M20.81,24.32a8.3,8.3,0,0,1,3.27.65,8.69,8.69,0,0,1,2.68,1.77,8.33,8.33,0,0,1,1.81,2.63,8.16,8.16,0,0,1,0,6.45,8.31,8.31,0,0,1-1.81,2.63,8.7,8.7,0,0,1-2.68,1.77,8.51,8.51,0,0,1-6.54,0,8.54,8.54,0,0,1-2.67-1.77,8.44,8.44,0,0,1-1.8-2.63,8.18,8.18,0,0,1,0-6.45A8.35,8.35,0,0,1,17.54,25,8.3,8.3,0,0,1,20.81,24.32Zm0,12.74a4.49,4.49,0,0,0,1.77-.35,4.61,4.61,0,0,0,1.44-1,4.49,4.49,0,0,0,1-1.42,4.42,4.42,0,0,0,0-3.47,4.51,4.51,0,0,0-1-1.42,4.64,4.64,0,0,0-1.44-1,4.63,4.63,0,0,0-3.53,0,4.62,4.62,0,0,0-1.44,1,4.54,4.54,0,0,0-1,1.42,4.42,4.42,0,0,0,0,3.47,4.52,4.52,0,0,0,1,1.42,4.59,4.59,0,0,0,1.44,1A4.48,4.48,0,0,0,20.82,37.06Z"/><path class="cls-2" d="M36.06,36.61l-.6.07-.62,0v4.17H31V24.41h3.87a7.67,7.67,0,0,1,2.7.52,7.48,7.48,0,0,1,2.21,1.33,6.16,6.16,0,0,1,1.49,1.94,5.32,5.32,0,0,1,.54,2.37A5.38,5.38,0,0,1,41.22,33a6,6,0,0,1-1.6,2l3.71,5.9H38.76Zm-1.21-3.72A4.05,4.05,0,0,0,36,32.67a3.54,3.54,0,0,0,1-.51,2.45,2.45,0,0,0,.66-.73,1.74,1.74,0,0,0,.24-.89,1.67,1.67,0,0,0-.24-.88,2.49,2.49,0,0,0-.66-.72,3.53,3.53,0,0,0-1-.51,4.05,4.05,0,0,0-1.18-.21Z"/><polygon class="cls-2" points="53.64 24.27 53.64 28.08 50.41 28.08 50.41 40.89 46.53 40.89 46.53 28.08 43.33 28.08 43.33 24.27 53.64 24.27"/><path class="cls-2" d="M61.68,40.89a6.34,6.34,0,0,1-5.88-3.81,6.22,6.22,0,0,1-.51-2.41V24.32h3.87V34.65a2.35,2.35,0,0,0,.76,1.74,2.55,2.55,0,0,0,1.79.7,2.37,2.37,0,0,0,1-.2,2.68,2.68,0,0,0,.8-.54,2.29,2.29,0,0,0,.53-.79,2.54,2.54,0,0,0,.19-1V24.32H68V34.56A5.84,5.84,0,0,1,67.58,37a6.31,6.31,0,0,1-1.35,2,6.48,6.48,0,0,1-2,1.36,6.32,6.32,0,0,1-2.46.53Z"/><path class="cls-2" d="M84,31.62v9.27H80.14v-.41a7.09,7.09,0,0,1-1.32.33,9,9,0,0,1-1.34.1,8.73,8.73,0,0,1-3.19-.61,8.22,8.22,0,0,1-2.79-1.83,7.9,7.9,0,0,1-1.84-2.74,8.34,8.34,0,0,1-.61-3.12,8.44,8.44,0,0,1,.61-3.13,7.9,7.9,0,0,1,1.84-2.75A8.24,8.24,0,0,1,74.3,24.9a8.63,8.63,0,0,1,6.37,0,8.28,8.28,0,0,1,2.8,1.83l-2.75,2.71a4.36,4.36,0,0,0-1.51-1,4.67,4.67,0,0,0-3.44,0,4.33,4.33,0,0,0-1.51,1,4.43,4.43,0,0,0-1,1.49,4.33,4.33,0,0,0,0,3.38,4.57,4.57,0,0,0,2.35,2.4,4.64,4.64,0,0,0,1.54.38,4.81,4.81,0,0,0,1.57-.15,4.32,4.32,0,0,0,1.44-.68v-.83H76.78V31.62Z"/><path class="cls-2" d="M95.5,40.89l-.67-2H89.54l-.69,2h-4.1l5.73-16.55h3.66l5.43,16.55Zm-4.63-5.82H93.6l-1.33-4Z"/><polygon class="cls-2" points="110.73 40.89 100.72 40.89 100.72 24.32 104.59 24.32 104.59 37.08 110.73 37.08 110.73 40.89"/></g></g></svg>