<?xml version="1.0" standalone="no"?>
<!DOCTYPE svg PUBLIC "-//W3C//DTD SVG 1.1//EN" "http://www.w3.org/Graphics/SVG/1.1/DTD/svg11.dtd" >
<svg xmlns="http://www.w3.org/2000/svg">
<metadata>Generated by IcoMoon</metadata>
<defs>
<font id="casinopt" horiz-adv-x="1024">
<font-face units-per-em="1024" ascent="960" descent="-64" />
<missing-glyph horiz-adv-x="1024" />
<glyph unicode="&#x20;" horiz-adv-x="512" d="" />
<glyph unicode="&#xe900;" glyph-name="andebol" d="M338.24 391.68l173.76-126.4 173.76 126.4-66.56 204.16h-214.72l-66.24-204.16zM403.52 882.24l-90.24-123.52 90.24-123.52h216.64l90.24 123.52-90.24 123.52h-216.64zM155.2 355.2l145.28 47.68 66.88 206.080-89.6 123.84-145.28-47.68-66.88-206.080 89.6-123.84zM169.28 160.32l175.36-127.36 145.28 47.040-0.32 152.96-175.36 127.36-145.28-47.040 0.32-152.96zM868.48 355.2l89.92 123.84-67.2 206.080-145.28 47.68-89.6-123.84 66.88-206.080 145.28-47.68zM533.76 80l145.28-47.040 175.68 127.36 0.32 152.96-145.6 47.040-175.36-127.36-0.32-152.96zM0 437.76c2.042-104.944 35.507-201.683 91.334-281.654l36.666 8.374v160l-92.48 130.24zM933.44 157.44c54.901 78.376 88.484 175.229 90.552 279.808l-35.512 17.472-92.48-129.92v-160zM918.4 759.36c-60.348 78.346-141.319 138.062-234.822 171.368l-31.098-27.688 96-128 152.32-49.6zM343.68 931.84c-97.081-34.418-178.052-94.134-237.514-171.283l17.674-36.077 152.64 49.28 96 128zM364.8-42.56c44.012-13.624 94.61-21.47 147.040-21.47s103.028 7.847 150.683 22.429l1.797 38.401-152.32 49.28-152.64-49.28zM909.12 124.8c-55.005-67.337-125.637-119.872-206.477-152.377l0.397 30.777 175.68 128zM1024 478.080c-5.365 92.399-34.579 177.005-81.518 248.999l-14.482-29.159 67.52-207.040zM381.76 943.36c38.983 10.575 83.742 16.65 129.92 16.65s90.937-6.075 133.521-17.47l-24.721-21.58h-217.6zM324.48-28.48c-84.283 33.728-154.915 86.263-209.194 152.683l29.354 6.357 175.68-128zM0 478.080c5.675 92.493 35.211 177.071 82.467 248.964l13.533-29.124-67.52-206.72z" />
<glyph unicode="&#xe901;" glyph-name="badminton" d="M914.136 511.172l39.099 38.776c43.553 43.473 70.497 103.573 70.497 169.967 0 132.626-107.515 240.141-240.141 240.141-66.233 0-126.203-26.814-169.647-70.178l-39.418-39.418 339.61-339.287zM758.71 614.574l-80.136 80.783-506.668-399.066 23.265-163.827 163.827-23.265 17.449 21.65 382.263 483.726-40.391 40.068-39.745 40.714 40.714-40.714 39.422-40.068zM139.915 317.617l-139.915 10.663v157.041l549.322 339.287 102.755-102.755-513.131-404.236zM837.554 535.407l-51.055 51.055 102.109-101.14-339.287-549.322h-157.041l-10.34 139.269 25.204 32.313 379.355 478.879 51.055-51.055z" />
<glyph unicode="&#xe902;" glyph-name="basquete" d="M491.52-64v491.52h-164.48c-5.746-140.675-67.406-265.911-163.2-354.906 85.925-80.513 200.399-131.412 326.667-136.581zM107.52 134.72c-63.074 80.225-102.793 181.457-107.485 291.756l286.045 1.044c-5.627-129.305-62.665-244.277-151.037-325.785s-18.883 20.825-28.483 31.705zM890.24 102.72c78.627 85.75 128.506 198.988 133.726 323.768l-286.046 1.032c5.627-129.305 62.665-244.277 151.037-325.785zM861.44 73.6c-86.335-80.884-201.177-132.266-327.928-137.566l-1.032-0.034v491.52h164.48c5.746-140.675 67.406-265.911 163.2-354.906zM890.24 795.84c79.156-86.376 129.149-200.619 133.734-326.449l-286.054-0.911c5.627 129.305 62.665 244.277 151.037 325.785zM861.44 824.96c-86.624 79.954-201.485 130.457-328.060 135.014l-0.9-491.494h164.48c5.746 140.675 67.406 265.911 163.2 354.906zM134.72 794.56c-79.24-85.956-129.504-199.689-134.686-325.058l286.046-1.022c-5.627 129.305-62.665 244.277-151.037 325.785zM163.52 823.68c86.245 80.219 200.719 131.118 326.987 136.287l1.013 0.033v-491.52h-164.48c-5.746 140.675-67.406 265.911-163.2 354.906z" />
<glyph unicode="&#xe903;" glyph-name="ciclismo" d="M518.633-64c-1.449-0.015-3.162-0.023-4.876-0.023-283.217 0-512.809 229.592-512.809 512.809 0 1.715 0.008 3.427 0.025 5.138-0.021 1.377-0.032 3.313-0.032 5.251 0 276.605 224.233 500.838 500.838 500.838 1.262 0 2.523-0.005 3.783-0.014 280.768-2.489 507.571-230.829 507.571-512.142 0-276.648-219.343-502.065-493.607-511.832zM505.367 884.615c-0.88 0.007-1.92 0.010-2.961 0.010-234.971 0-425.453-190.482-425.453-425.453 0-2.279 0.018-4.553 0.054-6.823-0.012-0.603-0.016-1.721-0.016-2.84 0-240.332 194.828-435.16 435.16-435.16s435.16 194.828 435.16 435.16c0 240.332-194.828 435.16-435.16 435.16-2.385 0-4.765-0.019-7.141-0.057zM497.603 922.47h15.53v-434.836h-15.53v434.836zM497.603 415.161h15.53v-441.63h-15.53v441.63zM38.501 460.456h428.365v-15.206h-428.365v15.206zM543.869 460.456h441.954v-15.206h-441.954v15.206zM534.162 477.28l-11 10.677 312.538 305.744 11-10.677-312.538-305.744zM167.917 119.123l-10.677 10.677 312.862 304.773 11-10.677-313.185-304.773zM845.73 100.034l-317.715 322.568 11 10.353 317.715-322.245-11-10.677zM472.043 472.427l-323.539 292.479 10.353 11 323.539-292.479-10.353-11zM691.079 4.59l-177.946 407.659 14.236 5.824 177.946-407.659-14.236-5.824zM79.591 258.245l-6.471 13.912 390.835 175.358 6.147-13.589-390.511-175.682zM543.221 461.75l-5.824 13.912 415.747 166.946 5.824-13.912-415.747-166.946zM525.75 484.722l-14.236 5.5 166.299 405.718 14.236-5.5-166.299-405.718zM945.057 263.098l-407.982 166.946 6.147 13.912 407.659-166.946-5.824-13.912zM326.451 4.59l-14.236 5.5 167.917 412.835 14.236-5.5-167.917-412.835zM480.131 484.398l-174.064 397.629 13.912 5.824 174.387-397.306-14.236-6.147zM462.66 456.897l-389.541 162.093 6.147 13.912 389.541-162.093-6.147-13.912zM582.37 452.691c0-41.455-34.475-75.061-77.002-75.061s-77.002 33.606-77.002 75.061c0 41.455 34.475 75.061 77.002 75.061s77.002-33.606 77.002-75.061z" />
<glyph unicode="&#xe904;" glyph-name="d-motorizados" horiz-adv-x="1330" d="M152.581-24.503c19.669-24.265 49.474-39.648 82.872-39.648 1.999 0 3.985 0.055 5.957 0.164l1044.514-0.012c18.004 18.226 30.82 41.614 36.029 67.746l-1194.317 0.853q12.057-14.967 24.945-29.103zM772.054 536.348c-2.264-8.627-3.564-18.531-3.564-28.739 0-23.261 6.75-44.945 18.398-63.201 29.843-63.351 62.123-117.884 98.79-169.060l6.113-7.992 9.562-13.72c20.788-29.934 26.608-38.249 66.105-38.249h348.401c-40.116 200.079-126.658 375.447-248.036 520.699-62.947-36.762-146.929-81.663-200.561-109.103-42.64-17.209-76.209-49.429-94.76-89.958zM1327.916 137.225h-360.042c-3.219-0.27-6.967-0.424-10.751-0.424-52.049 0-97.288 29.161-120.269 72.036l-9.088 13.202-7.899 11.225c-36.667 50.408-71.003 107.651-100.16 167.869-20.058 35.165-30.18 69.47-30.18 106.139 0 18.789 2.658 36.958 7.617 54.15 24.905 60.956 72.731 109.729 132.745 135.616 48.183 25.151 119.693 63.816 180.393 95.829-111.331 100.523-258.642 163.075-420.504 166.291-325.835-0.231-589.353-263.897-589.353-589.112 0-121.266 36.639-233.975 99.452-327.659l1230.535 2.124c0.696 9.869 1.092 21.386 1.092 32.996 0 21.047-1.303 41.789-3.833 62.151z" />
<glyph unicode="&#xe905;" glyph-name="futebol" horiz-adv-x="1035" d="M388.971 248.018l-78.247 240.561 204.671 148.734 204.671-148.734-77.924-240.561h-253.171zM3.233 384.465l201.437 146.47-80.51 247.997-6.143-7.113c-73.445-88.38-118.018-203.033-118.018-328.097 0-0.372 0-0.744 0.001-1.116 0 0.015 0-0.035 0-0.086 0-20.455 1.175-40.635 3.46-60.478zM1030.79 382.201v0c2.339 18.027 3.745 39.008 3.879 60.291 0.001 0.391 0.001 0.649 0.001 0.908 0 125.063-44.573 239.716-118.699 328.939l-8.372 9.503-81.48-251.231zM76.63 171.711c73.815-118.659 191.373-204.185 329.612-234.436l-74.824 239.609h-258.668zM955.453 167.831l6.467 9.377h-262.548l-78.247-240.884c141.663 29.682 259.615 114.004 333.081 229.411zM313.958 918.613l-4.203-2.587 207.581-150.027 207.581 150.997-4.203 2.263c-59.977 26.33-129.888 41.653-203.377 41.653s-143.4-15.323-206.711-42.95z" />
<glyph unicode="&#xe906;" glyph-name="golfe" d="M208.96 800c-17.477-15.496-33.464-31.483-48.452-48.376-12.988-14.984-9.148-18.824 7.492-8.584 19.68 12.83 36.017 29.066 48.576 48.023 10.304 17.577 7.424 21.417-7.616 8.937zM347.52 882.56c-20.624-9.792-36.56-26.662-44.907-47.402-6.933-20.118 3.947-32.598 24.427-25.558 22.142 7.28 39.062 24.834 45.322 46.873 4.598 21.287-6.602 32.807-24.842 26.087zM512 833.92c0.484-0.022 1.052-0.035 1.623-0.035 20.678 0 37.44 16.762 37.44 37.44 0 0.463-0.008 0.923-0.025 1.382 0.002 21.583-17.549 39.134-39.198 39.134s-39.2-17.55-39.2-39.2c-0.015-0.397-0.024-0.863-0.024-1.33 0-20.678 16.762-37.44 37.44-37.44 0.684 0 1.363 0.018 2.038 0.055zM696.96 809.6c20.48-5.44 32 5.44 24.64 24.96-8.56 21.338-24.496 38.208-44.582 47.769-18.778 6.951-29.978-4.569-25.498-25.049 6.285-22.657 23.229-40.341 44.952-47.54zM815.040 800c-14.4 12.48-18.24 8.64-8-8 12.85-19.559 29.081-35.791 48.015-48.253 17.585-10.307 21.105-6.787 8.625 7.613-15.401 17.356-31.283 33.238-48.060 48.134zM125.44 657.6c-21.338-8.56-38.208-24.496-47.769-44.582-6.951-18.778 4.569-29.978 25.049-25.498 22.657 6.285 40.341 23.229 47.54 44.952 5.58 20.968-5.62 31.848-24.82 25.128zM126.080 448c0.022 0.484 0.035 1.052 0.035 1.623 0 20.678-16.762 37.44-37.44 37.44-0.463 0-0.923-0.008-1.382-0.025-21.583 0.002-39.134-17.549-39.134-39.198s17.55-39.2 39.2-39.2c0.397-0.015 0.863-0.024 1.33-0.024 20.678 0 37.44 16.762 37.44 37.44 0 0.684-0.018 1.363-0.055 2.038zM103.040 308.48c-20.8 4.48-32-7.040-25.28-24.96 9.792-20.624 26.662-36.56 47.402-44.907 20.118-6.933 32.598 3.947 25.558 24.427-7.339 22.211-25.023 39.155-47.194 45.325zM168.32 152.96c-16.96 9.92-20.48 6.4-8-8 15.421-17.498 31.304-33.483 48.091-48.478 14.949-12.962 18.789-9.122 8.549 7.518-12.83 19.68-29.066 36.017-48.023 48.576zM294.4 616.64c25.514 3.486 45.474 23.446 48.927 48.664 0.527 2.403 0.81 4.821 0.81 7.306 0 17.673-14.327 32-32 32-2.2 0-4.348-0.222-6.423-0.645-24.96-5.23-44.449-24.719-49.641-49.468-0.461-2.286-0.683-4.434-0.683-6.634 0-17.673 14.327-32 32-32 2.485 0 4.903 0.283 7.225 0.819zM332.8 448c0.012 0.384 0.018 0.836 0.018 1.29 0 24.941-19.954 45.222-44.769 45.749-26.117 0.001-47.249-21.131-47.249-47.199s21.132-47.2 47.2-47.2c24.869 0.522 44.828 20.806 44.828 45.751 0 0.566-0.010 1.13-0.031 1.691zM343.36 230.4c-3.486 25.514-23.446 45.474-48.664 48.927-2.403 0.527-4.821 0.81-7.306 0.81-17.673 0-32-14.327-32-32 0-2.2 0.222-4.348 0.645-6.423 5.23-24.96 24.719-44.449 49.468-49.641 2.286-0.461 4.434-0.683 6.634-0.683 17.673 0 32 14.327 32 32 0 2.485-0.283 4.903-0.819 7.225zM327.040 86.4c-20.48 5.44-32-5.44-24.64-24.96 8.56-21.338 24.496-38.208 44.582-47.769 18.778-6.951 29.978 4.569 25.498 25.049-6.285 22.657-23.229 40.341-44.952 47.54zM512 627.2c0.384-0.012 0.836-0.018 1.29-0.018 24.941 0 45.222 19.954 45.749 44.769 0.001 26.117-21.131 47.249-47.199 47.249s-47.2-21.132-47.2-47.2c0.522-24.869 20.806-44.828 45.751-44.828 0.566 0 1.13 0.010 1.691 0.031zM561.92 448c0-27.57-22.35-49.92-49.92-49.92s-49.92 22.35-49.92 49.92c0 27.57 22.35 49.92 49.92 49.92s49.92-22.35 49.92-49.92zM512 268.8c-0.384 0.012-0.836 0.018-1.29 0.018-24.941 0-45.222-19.954-45.749-44.769-0.001-26.117 21.131-47.249 47.199-47.249s47.2 21.132 47.2 47.2c-0.522 24.869-20.806 44.828-45.751 44.828-0.566 0-1.13-0.010-1.691-0.031zM512 62.080c-0.484 0.022-1.052 0.035-1.623 0.035-20.678 0-37.44-16.762-37.44-37.44 0-0.463 0.008-0.923 0.025-1.382-0.002-21.583 17.549-39.134 39.198-39.134s39.2 17.55 39.2 39.2c0.015 0.397 0.024 0.863 0.024 1.33 0 20.678-16.762 37.44-37.44 37.44-0.684 0-1.363-0.018-2.038-0.055zM680.64 665.6c3.587-25.288 23.352-45.053 48.337-48.605 2.49-0.569 5.001-0.874 7.583-0.874 17.673 0 32 14.327 32 32 0 2.107-0.204 4.167-0.593 6.161-5.232 24.963-24.722 44.453-49.471 49.645-2.286 0.461-4.434 0.683-6.634 0.683-17.673 0-32-14.327-32-32 0-2.485 0.283-4.903 0.819-7.225zM736 495.040c-26.068 0-47.2-21.132-47.2-47.2s21.132-47.2 47.2-47.2c26.068 0 47.2 21.132 47.2 47.2s-21.132 47.2-47.2 47.2zM729.6 279.36c-25.288-3.587-45.053-23.352-48.605-48.337-0.569-2.49-0.874-5.001-0.874-7.583 0-17.673 14.327-32 32-32 2.107 0 4.167 0.204 6.161 0.593 24.963 5.232 44.453 24.722 49.645 49.471 0.461 2.286 0.683 4.434 0.683 6.634 0 17.673-14.327 32-32 32-2.485 0-4.903-0.283-7.225-0.819zM696.96 86.4c-22.142-7.28-39.062-24.834-45.322-46.873-4.598-21.287 6.922-32.487 24.842-25.767 20.624 9.792 36.56 26.662 44.907 47.402 6.933 19.478-3.947 30.678-24.427 25.238zM920.96 587.52c20.8-4.48 32 7.040 25.28 24.96-9.792 20.624-26.662 36.56-47.402 44.907-20.118 6.933-32.598-3.947-25.558-24.427 7.339-22.211 25.023-39.155 47.194-45.325zM936.64 487.040c-21.65 0-39.2-17.55-39.2-39.2s17.55-39.2 39.2-39.2c21.65 0 39.2 17.55 39.2 39.2s-17.55 39.2-39.2 39.2zM920.96 308.48c-22.526-6.378-40.080-23.298-47.22-44.952-5.58-20.968 5.3-32.488 24.82-25.128 21.338 8.56 38.208 24.496 47.769 44.582 6.951 18.778-4.569 29.978-25.369 25.498zM855.68 152.96c-19.559-12.85-35.791-29.081-48.253-48.015-10.307-17.585-6.787-21.105 7.613-8.625 17.498 15.421 33.483 31.304 48.478 48.091 12.962 15.589 9.122 18.469-7.838 8.549zM512-64c-282.77 0-512 229.23-512 512s229.23 512 512 512c282.77 0 512-229.23 512-512s-229.23-512-512-512zM512 913.6c-257.144 0-465.6-208.456-465.6-465.6s208.456-465.6 465.6-465.6c257.144 0 465.6 208.456 465.6 465.6-0.364 256.997-208.603 465.236-465.565 465.6z" />
<glyph unicode="&#xe907;" glyph-name="raguebi" d="M38.4-25.6c70.812-24.472 152.417-38.604 237.324-38.604 413.551 0 748.8 335.249 748.8 748.8 0 84.906-14.131 166.512-40.171 242.593-69.245 19.203-150.85 33.334-235.756 33.334-413.551 0-748.8-335.249-748.8-748.8 0-84.906 14.131-166.512 40.171-242.593zM550.4 666.24l72.64-72.64 62.080 61.76c4.586 4.586 10.922 7.423 17.92 7.423 13.996 0 25.343-11.346 25.343-25.343 0-6.998-2.837-13.334-7.423-17.92l-61.76-61.76 72.64-72.64c4.723-4.762 7.641-11.32 7.641-18.56 0-14.559-11.802-26.361-26.361-26.361-7.319 0-13.942 2.983-18.718 7.799l-72.642 72.642-72-72 72.64-72.64c4.586-4.586 7.423-10.922 7.423-17.92 0-13.996-11.346-25.343-25.343-25.343-6.998 0-13.334 2.837-17.92 7.423l-72.64 72.64-72.32-71.040 72.64-72.64c4.586-4.586 7.423-10.922 7.423-17.92 0-13.996-11.346-25.343-25.343-25.343-6.998 0-13.334 2.837-17.92 7.423l-72.64 72.64-64-64c-4.614-4.525-10.941-7.318-17.92-7.318s-13.306 2.793-17.924 7.322c-4.543 4.518-7.357 10.778-7.357 17.696 0 0.078 0 0.155 0.001 0.232 0 0.014 0 0.046 0 0.077 0 6.959 2.812 13.261 7.361 17.832l63.999 63.999-72.64 72.64c-4.586 4.586-7.423 10.922-7.423 17.92 0 13.996 11.346 25.343 25.343 25.343 6.998 0 13.334-2.837 17.92-7.423l72.64-72.64 72 72-72.64 72.64c-4.586 4.586-7.423 10.922-7.423 17.92 0 13.996 11.346 25.343 25.343 25.343 6.998 0 13.334-2.837 17.92-7.423l72.64-72.64 72 72-73.6 72.96c-4.586 4.586-7.423 10.922-7.423 17.92 0 13.996 11.346 25.343 25.343 25.343 6.998 0 13.334-2.837 17.92-7.423z" />
<glyph unicode="&#xe908;" glyph-name="snooker" d="M512-64c-282.668 0.135-511.763 229.313-511.763 512 0 141.326 57.26 269.278 149.845 361.923 91.624 87.177 215.873 140.809 352.649 140.809 282.77 0 512-229.23 512-512 0-136.776-53.632-261.025-141.013-352.865-91.976-92.491-219.602-149.867-360.628-149.867-0.383 0-0.767 0-1.15 0.001zM512 758.080c-171.252 0-310.080-138.828-310.080-310.080s138.828-310.080 310.080-310.080c171.252 0 310.080 138.828 310.080 310.080-0.182 171.179-138.901 309.898-310.062 310.080zM636.8 367.68c0.002-0.244 0.003-0.532 0.003-0.82 0-16.2-3.659-31.546-10.196-45.256-6.458-13.54-15.503-25.553-26.503-35.432-11.287-10.078-24.466-18.11-38.935-23.495-14.885-5.55-31.106-8.602-48.040-8.602-0.397 0-0.794 0.002-1.19 0.005-0.379-0.005-0.898-0.008-1.418-0.008-17.034 0-33.356 3.053-48.447 8.641-14.323 5.321-27.494 13.241-38.862 23.173-10.956 9.664-19.919 21.597-26.14 35.057-6.341 13.814-9.88 29.207-9.88 45.428 0 0.46 0.003 0.919 0.009 1.378 0.072 10.55 1.586 20.786 4.355 30.494 2.684 9.89 6.733 19.253 11.921 27.852 5.071 8.377 11.442 15.971 18.815 22.452 7.36 6.507 16.004 11.537 25.512 14.666-8.327 2.746-15.947 7.158-22.242 12.981-6.033 5.725-11.070 12.5-14.816 20.031-3.784 7.495-6.759 15.722-8.692 24.342-1.957 8.499-3.006 17.441-3.014 26.627-0.017 0.666-0.026 1.443-0.026 2.223 0 28.044 12.355 53.203 31.918 70.33 10.414 8.74 22.552 15.611 35.811 20.028 14.018 5.075 29.307 7.888 45.25 7.904 0.176 0.001 0.375 0.001 0.575 0.001 15.863 0 31.068-2.815 45.144-7.973 13.14-4.747 25.256-11.916 35.715-20.951 19.561-17.853 31.877-43.641 31.877-72.305 0-0.749-0.008-1.497-0.025-2.242-0.083-8.822-1.48-17.398-4.007-25.475-2.555-8.515-6.149-16.474-10.646-23.821-4.281-7.025-9.582-13.446-15.678-19.012-5.973-5.435-13.008-9.686-20.762-12.411 9.958-2.937 18.97-7.799 26.547-14.288 7.548-6.468 13.947-14.193 18.885-22.858 4.996-8.619 8.941-18.095 11.565-28.107 3.039-9.562 4.983-19.715 5.602-30.223zM576 371.2c0.002 0.19 0.003 0.415 0.003 0.641 0 8.881-1.765 17.35-4.963 25.075-3.228 7.754-7.875 14.762-13.618 20.703-5.696 5.915-12.489 10.762-20.052 14.214-7.58 3.405-15.955 5.291-24.771 5.291-0.211 0-0.421-0.001-0.632-0.003-0.095 0.001-0.245 0.002-0.395 0.002-9.174 0-17.936-1.763-25.966-4.968-7.952-3.19-15.174-7.843-21.322-13.626-5.989-5.688-10.935-12.476-14.511-20.038-3.609-7.569-5.616-15.975-5.616-24.849 0-0.183 0.001-0.365 0.003-0.547-0.004-0.245-0.006-0.566-0.006-0.888 0-9.116 1.765-17.82 4.971-25.789 3.215-7.884 7.982-15.013 13.917-20.978 5.976-6.002 13.095-10.865 21.004-14.233 8.179-3.407 17.18-5.291 26.621-5.291 0.356 0 0.711 0.003 1.066 0.008 0.125-0.003 0.335-0.004 0.546-0.004 8.815 0 17.19 1.886 24.743 5.277 7.606 3.427 14.406 8.28 20.073 14.221 5.739 5.909 10.468 12.79 13.92 20.374 3.227 7.427 4.998 15.556 4.998 24.098 0 0.462-0.005 0.923-0.015 1.382zM568.64 544c0 0.003 0 0.006 0 0.009 0 7.862-1.648 15.339-4.618 22.104-2.817 6.637-6.927 12.593-12.011 17.556-5.070 4.858-11.004 8.843-17.543 11.7-6.799 2.982-14.276 4.631-22.138 4.631-0.003 0-0.007 0-0.010 0-0.693 0.032-1.506 0.050-2.324 0.050-14.996 0-28.558-6.14-38.309-16.043-9.721-9.636-15.735-22.985-15.735-37.738 0-0.798 0.018-1.592 0.052-2.382 0.060-7.648 1.702-15.008 4.616-21.686 2.885-6.792 6.871-12.933 11.743-18.249 4.958-5.309 10.897-9.713 17.524-12.918 6.561-3.185 13.86-4.957 21.574-4.957 0.19 0 0.379 0.001 0.568 0.003 7.868 0.004 15.35 1.773 22.047 4.934 6.62 3.095 12.549 7.284 17.604 12.345 5.026 5.017 9.124 10.96 12.017 17.553 3.177 6.869 4.947 14.483 4.947 22.51 0 0.203-0.001 0.406-0.003 0.608z" />
<glyph unicode="&#xe909;" glyph-name="pingpong" horiz-adv-x="1022" d="M197.851 702.633c24.66 49.045 57.046 90.578 96.047 124.745l40.68 36.11c69.091 59.904 159.887 96.408 259.209 96.408 107.853 0 205.652-43.044 277.157-112.89l37.563-37.565c69.771-71.427 112.816-169.227 112.816-277.080 0-99.322-36.504-190.118-96.827-259.704l-35.612-40.041c-34.566-39.466-76.099-71.852-122.826-95.451l-568.205 565.468zM176.297 649.551c-11.44-35.082-18.036-75.453-18.036-117.363 0-109.717 45.205-208.876 118.006-279.868l37.078-37.075c71.025-72.907 170.158-118.132 279.855-118.132 41.946 0 82.348 6.613 120.22 18.853l-537.123 533.587zM347.124 121.626l-145.413-166.967c-9.384-9.777-22.561-15.853-37.157-15.853s-27.773 6.075-37.141 15.835l-111.328 111.651c-9.861 9.344-15.997 22.534-15.997 37.157s6.136 27.813 15.974 37.136l164.416 146.721c17.145-26.654 35.922-49.828 56.93-70.764l37.009-37.009c21.559-21.58 45.479-40.795 71.34-57.227zM990.542-32.794c19.080 19.044 30.884 45.373 30.884 74.459 0 58.1-47.099 105.199-105.199 105.199s-105.199-47.099-105.199-105.199c0-29.086 11.804-55.414 30.882-74.457 19.032-18.996 45.302-30.742 74.316-30.742s55.285 11.746 74.316 30.742z" />
<glyph unicode="&#xe90a;" glyph-name="tenis" d="M838.4 842.24c-87.921 73.218-202.050 117.662-326.56 117.662s-238.639-44.444-327.389-118.332c80.599-104.682 128.606-237.931 128.606-382.393 0-3.93-0.036-7.851-0.106-11.764 0.066-2.614 0.099-6.389 0.099-10.172 0-144.645-48.129-278.049-129.246-385.071 89.077-71.628 203.206-116.071 327.716-116.071s238.639 44.444 327.389 118.332c-80.789 104.978-128.909 238.588-128.909 383.436 0 3.563 0.029 7.119 0.087 10.668-0.054 2.355-0.081 5.765-0.081 9.181 0 145.032 48.242 278.796 129.554 386.122zM884.48 800c-68.686-93.998-109.898-211.861-109.898-339.35 0-4.448 0.050-8.884 0.15-13.308-0.101-3.139-0.152-7.61-0.152-12.093 0-127.456 41.214-245.286 111.043-340.889 85.667 93.189 139.052 217.18 139.052 353.64s-53.385 260.452-140.409 352.229zM139.2 96c68.686 93.964 109.901 211.793 109.901 339.249 0 4.483-0.051 8.955-0.152 13.414 0.1 3.103 0.15 7.539 0.15 11.987 0 127.488-41.212 245.351-111.042 340.992-85.666-93.191-139.050-217.183-139.050-353.643s53.385-260.452 140.409-352.229z" />
<glyph unicode="&#xe90b;" glyph-name="voleibol" d="M1016 539.52c-124.343 118.818-293.219 191.947-479.176 191.947-31.316 0-62.148-2.074-92.366-6.092 17.522-80.937 44.097-153.724 81.447-219.6 185.748 0.586 355.303-73.996 481.095-194.040-0.28-2.295 3.24 13.705 5.8 24.265 7.774 33.609 12.23 72.202 12.23 111.836 0 20.465-1.188 40.652-3.499 60.497-2.011 18.387-6.491 40.467-4.571 29.587zM997.44 611.52c-125.041 101.261-286.051 162.567-461.379 162.567-33.304 0-66.091-2.212-98.223-6.497 1.36 21.805-0.010 46.607-0.010 71.729 0 41.288 3.701 81.712 10.788 120.957l13.463-4.116q24.96 3.84 49.92 3.84c213.542-0.033 396.535-130.789 473.316-316.6 7.004-17.8 13.724-37.64 12.124-32.52zM992 268.8c-57.416 57.906-125.154 105.467-200.244 139.71-93.451-207.936-271.073-365.082-488.996-424.589l8.919-7.601c58.851-25.562 127.399-40.433 199.42-40.433 211.669 0 393.337 128.445 471.314 311.645 5.106 12.308 9.266 24.148 8.306 20.948zM241.92 12.8c230.163 46.466 416.188 201.54 504.834 408.274-64.687 30.022-141.482 45.396-221.689 46.758-95.45-156.359-244.51-271.782-421.159-321.036-6.946 1.364 2.014-10.476 8.734-19.116 29.407-36.502 62.666-68.134 99.632-94.971 12.368-8.709 31.248-20.869 29.648-19.909zM74.56 181.76c88.151 22.879 165.314 60.22 232.936 109.806-95.699 120.921-152.217 276.063-152.217 444.405 0 29.325 1.715 58.25 5.050 86.68s-17.929-20.731-28.169-31.931c-81.937-90.424-132.088-210.973-132.088-343.235 0-89.28 22.851-173.222 63.024-246.297 4.424-7.907 13.064-22.307 11.464-19.747zM208 860.16c-7.049-37.133-11.081-79.845-11.081-123.5 0-158.836 53.378-305.204 143.175-422.146 57.319 50.44 106.673 107.742 145.575 172.072-55.173 103.139-88.69 222.961-88.69 350.61 0 39.401 3.193 78.056 9.335 115.721l-13.354-6.997c-60.717-14.854-114.127-38.655-161.889-70.296-9.631-6.504-25.631-18.024-22.431-15.784z" />
<glyph unicode="&#xe90c;" glyph-name="calendar-o" horiz-adv-x="951" d="M73.143 9.143h804.571v585.143h-804.571v-585.143zM292.571 704v164.571c0 10.286-8 18.286-18.286 18.286h-36.571c-10.286 0-18.286-8-18.286-18.286v-164.571c0-10.286 8-18.286 18.286-18.286h36.571c10.286 0 18.286 8 18.286 18.286zM731.429 704v164.571c0 10.286-8 18.286-18.286 18.286h-36.571c-10.286 0-18.286-8-18.286-18.286v-164.571c0-10.286 8-18.286 18.286-18.286h36.571c10.286 0 18.286 8 18.286 18.286zM950.857 740.571v-731.429c0-40-33.143-73.143-73.143-73.143h-804.571c-40 0-73.143 33.143-73.143 73.143v731.429c0 40 33.143 73.143 73.143 73.143h73.143v54.857c0 50.286 41.143 91.429 91.429 91.429h36.571c50.286 0 91.429-41.143 91.429-91.429v-54.857h219.429v54.857c0 50.286 41.143 91.429 91.429 91.429h36.571c50.286 0 91.429-41.143 91.429-91.429v-54.857h73.143c40 0 73.143-33.143 73.143-73.143z" />
<glyph unicode="&#xe90d;" glyph-name="flag" horiz-adv-x="1061" d="M182.857 813.714c0-26.286-14.286-49.714-36.571-62.857v-723.429c0-9.714-8.571-18.286-18.286-18.286h-36.571c-9.714 0-18.286 8.571-18.286 18.286v723.429c-22.286 13.143-36.571 36.571-36.571 62.857 0 40.571 32.571 73.143 73.143 73.143s73.143-32.571 73.143-73.143zM1024 777.143v-436c0-21.143-13.143-29.143-29.714-37.714-64.571-34.857-136-66.286-210.857-66.286-105.143 0-155.429 80-280 80-90.857 0-186.286-41.143-265.143-83.429-6.286-3.429-12-5.143-18.857-5.143-20 0-36.571 16.571-36.571 36.571v424c0 13.714 6.857 23.429 17.714 31.429 13.714 9.143 30.286 17.143 45.143 24.571 72 36.571 159.429 68.571 240.571 68.571 89.714 0 160-29.714 239.429-66.857 16-8 32.571-10.857 50.286-10.857 89.714 0 186.286 77.714 211.429 77.714 20 0 36.571-16.571 36.571-36.571z" />
<glyph unicode="&#xe90e;" glyph-name="trophy" horiz-adv-x="951" d="M261.714 455.429c-24 52.571-42.286 122.286-42.286 212h-146.286v-54.857c0-56 76-133.714 188.571-157.143zM877.714 612.571v54.857h-146.286c0-89.714-18.286-159.429-42.286-212 112.571 23.429 188.571 101.143 188.571 157.143zM950.857 685.714v-73.143c0-108.571-131.429-228.571-309.714-237.143-22.857-29.143-44-46.286-54.286-54.286-30.286-27.429-38.286-56-38.286-92.571s18.286-73.143 73.143-73.143 109.714-36.571 109.714-91.429v-36.571c0-10.286-8-18.286-18.286-18.286h-475.429c-10.286 0-18.286 8-18.286 18.286v36.571c0 54.857 54.857 91.429 109.714 91.429s73.143 36.571 73.143 73.143-8 65.143-38.286 92.571c-10.286 8-31.429 25.143-54.286 54.286-178.286 8.571-309.714 128.571-309.714 237.143v73.143c0 30.286 24.571 54.857 54.857 54.857h164.571v54.857c0 50.286 41.143 91.429 91.429 91.429h329.143c50.286 0 91.429-41.143 91.429-91.429v-54.857h164.571c30.286 0 54.857-24.571 54.857-54.857z" />
<glyph unicode="&#xe90f;" glyph-name="caret-right" horiz-adv-x="329" d="M329.143 448c0-9.714-4-18.857-10.857-25.714l-256-256c-6.857-6.857-16-10.857-25.714-10.857-20 0-36.571 16.571-36.571 36.571v512c0 20 16.571 36.571 36.571 36.571 9.714 0 18.857-4 25.714-10.857l256-256c6.857-6.857 10.857-16 10.857-25.714z" />
<glyph unicode="&#xe910;" glyph-name="caret-left" horiz-adv-x="402" d="M365.714 704v-512c0-20-16.571-36.571-36.571-36.571-9.714 0-18.857 4-25.714 10.857l-256 256c-6.857 6.857-10.857 16-10.857 25.714s4 18.857 10.857 25.714l256 256c6.857 6.857 16 10.857 25.714 10.857 20 0 36.571-16.571 36.571-36.571z" />
<glyph unicode="&#xe911;" glyph-name="caret-up" horiz-adv-x="585" d="M585.143 265.143c0-20-16.571-36.571-36.571-36.571h-512c-20 0-36.571 16.571-36.571 36.571 0 9.714 4 18.857 10.857 25.714l256 256c6.857 6.857 16 10.857 25.714 10.857s18.857-4 25.714-10.857l256-256c6.857-6.857 10.857-16 10.857-25.714z" />
<glyph unicode="&#xe912;" glyph-name="caret-down" horiz-adv-x="585" d="M585.143 557.714c0-9.714-4-18.857-10.857-25.714l-256-256c-6.857-6.857-16-10.857-25.714-10.857s-18.857 4-25.714 10.857l-256 256c-6.857 6.857-10.857 16-10.857 25.714 0 20 16.571 36.571 36.571 36.571h512c20 0 36.571-16.571 36.571-36.571z" />
<glyph unicode="&#xe913;" glyph-name="search" horiz-adv-x="951" d="M658.286 484.571c0 141.143-114.857 256-256 256s-256-114.857-256-256 114.857-256 256-256 256 114.857 256 256zM950.857 9.143c0-40-33.143-73.143-73.143-73.143-19.429 0-38.286 8-51.429 21.714l-196 195.429c-66.857-46.286-146.857-70.857-228-70.857-222.286 0-402.286 180-402.286 402.286s180 402.286 402.286 402.286 402.286-180 402.286-402.286c0-81.143-24.571-161.143-70.857-228l196-196c13.143-13.143 21.143-32 21.143-51.429z" />
<glyph unicode="&#xe914;" glyph-name="heart" d="M512 9.143c-9.143 0-18.286 3.429-25.143 10.286l-356.571 344c-4.571 4-130.286 118.857-130.286 256 0 167.429 102.286 267.429 273.143 267.429 100 0 193.714-78.857 238.857-123.429 45.143 44.571 138.857 123.429 238.857 123.429 170.857 0 273.143-100 273.143-267.429 0-137.143-125.714-252-130.857-257.143l-356-342.857c-6.857-6.857-16-10.286-25.143-10.286z" />
<glyph unicode="&#xe915;" glyph-name="heart-o" d="M950.857 619.429c0 160.571-108.571 194.286-200 194.286-85.143 0-181.143-92-210.857-127.429-13.714-16.571-42.286-16.571-56 0-29.714 35.429-125.714 127.429-210.857 127.429-91.429 0-200-33.714-200-194.286 0-104.571 105.714-201.714 106.857-202.857l332-320 331.429 319.429c1.714 1.714 107.429 98.857 107.429 203.429zM1024 619.429c0-137.143-125.714-252-130.857-257.143l-356-342.857c-6.857-6.857-16-10.286-25.143-10.286s-18.286 3.429-25.143 10.286l-356.571 344c-4.571 4-130.286 118.857-130.286 256 0 167.429 102.286 267.429 273.143 267.429 100 0 193.714-78.857 238.857-123.429 45.143 44.571 138.857 123.429 238.857 123.429 170.857 0 273.143-100 273.143-267.429z" />
<glyph unicode="&#xe916;" glyph-name="document-star" d="M608 864h-319.727c-35.497 0-64.273-28.747-64.273-64.235v-735.531c0-35.476 28.51-64.235 63.918-64.235h480.165c35.301 0 63.918 28.51 63.918 63.918v544.082h-159.811c-35.451 0-64.189 28.375-64.189 63.939v192.061zM640 864v-191.906c0-17.725 14.431-32.094 31.705-32.094h160.295l-192 224zM528 224l-128-96 48 160-128 96h160l48 160 48-160h160l-128-96 48-160-128 96z" />
<glyph unicode="&#xe917;" glyph-name="spades" d="M817.57 611.85c-193.566 143.858-260.266 259.018-305.566 348.148v0c-0.004 0-0.004 0.002-0.004 0.002v-0.002c-45.296-89.13-112-204.292-305.566-348.148-330.036-245.286-19.376-587.668 253.758-399.224-17.796-116.93-78.53-202.172-140.208-238.882v-37.744h384.032v37.74c-61.682 36.708-122.41 121.954-140.212 238.884 273.136-188.446 583.8 153.94 253.766 399.226z" />
<glyph unicode="&#xe918;" glyph-name="clubs" d="M786.832 567.228c-59.032 0-112.086-24.596-149.852-64.694-15.996-16.984-43.762-37.112-73.8-54.81 14.11 53.868 58.676 121.7 89.628 151.456 39.64 38.17 63.984 91.83 63.984 151.5 0.006 114.894-91.476 208.096-204.788 209.32-113.32-1.222-204.796-94.426-204.796-209.318 0-59.672 24.344-113.33 63.986-151.5 30.954-29.756 75.52-97.588 89.628-151.456-30.042 17.7-57.806 37.826-73.8 54.81-37.768 40.098-90.82 64.694-149.85 64.694-114.386 0-207.080-93.664-207.080-209.328 0-115.638 92.692-209.338 207.080-209.338 59.042 0 112.082 25.356 149.85 65.452 16.804 17.872 46.444 40.138 78.292 58.632-3.002-147.692-73.532-256.168-145.318-298.906v-37.742h384.014v37.74c-71.792 42.736-142.32 151.216-145.32 298.906 31.852-18.494 61.488-40.768 78.292-58.632 37.766-40.094 90.808-65.452 149.852-65.452 114.386 0 207.078 93.7 207.078 209.338-0.002 115.664-92.692 209.328-207.080 209.328z" />
<glyph unicode="&#xe919;" glyph-name="diamonds" d="M512 960l-320-512 320-512 320 512z" />
<glyph unicode="&#xe91a;" glyph-name="banca-francesa" horiz-adv-x="1016" d="M128.61 252.805c38.662 0 70.003 31.341 70.003 70.003s-31.341 70.003-70.003 70.003c-38.662 0-70.003-31.341-70.003-70.003s31.341-70.003 70.003-70.003zM380.296-7.672c38.662 0 70.003 31.341 70.003 70.003s-31.341 70.003-70.003 70.003c-38.662 0-70.003-31.341-70.003-70.003s31.341-70.003 70.003-70.003zM637.843 252.805c38.662 0 70.003 31.341 70.003 70.003s-31.341 70.003-70.003 70.003c-38.662 0-70.003-31.341-70.003-70.003s31.341-70.003 70.003-70.003zM889.529-7.672c38.662 0 70.003 31.341 70.003 70.003s-31.341 70.003-70.003 70.003c-38.662 0-70.003-31.341-70.003-70.003 0-0.006 0-0.012 0-0.019 0-38.089 30.42-69.073 68.291-69.983zM889.529 508.398c38.097 0.731 68.701 31.787 68.701 69.991 0 38.662-31.341 70.003-70.003 70.003-38.657 0-69.996-31.335-70.003-69.99 0-0.001 0-0.001 0-0.001 0-38.547 31.156-69.818 69.66-70.002zM383.227 508.398c38.239 0.551 69.026 31.678 69.026 69.996 0 38.662-31.341 70.003-70.003 70.003-38.659 0-69.999-31.338-70.003-69.996 0-0.001 0-0.002 0-0.003 0-38.433 30.971-69.632 69.317-70zM637.843 768.875c37.955 0.911 68.375 31.895 68.375 69.984 0 38.662-31.341 70.003-70.003 70.003-38.655 0-69.992-31.331-70.003-69.983 0-0.007 0-0.013 0-0.020 0-38.662 31.341-70.003 70.003-70.003 0.572 0 1.143 0.007 1.712 0.021zM130.238 768.875c37.955 0.911 68.375 31.895 68.375 69.984 0 38.662-31.341 70.003-70.003 70.003-38.655 0-69.992-31.331-70.003-69.983 0-38.663 31.341-70.004 70.003-70.004zM765.151 700.174h165.728c47.113 0 85.306-38.193 85.306-85.306v-593.236c0-47.113-38.193-85.306-85.306-85.306h-593.887c-47.113 0-85.306 38.193-85.306 85.306v174.845h-167.356c-46.691 0.552-84.329 38.531-84.329 85.301 0 0.002 0 0.004 0 0.006v592.91c0 0.002 0 0.004 0 0.006 0 46.77 37.638 84.749 84.277 85.3h593.94c47.113 0 85.306-38.193 85.306-85.306z" />
<glyph unicode="&#xe91b;" glyph-name="roleta" d="M742.481 217.519c58.46 58.766 94.598 139.787 94.598 229.249 0 179.536-145.543 325.079-325.079 325.079s-325.079-145.543-325.079-325.079c0-89.462 36.138-170.483 94.612-229.263 58.875-59.182 140.393-95.817 230.467-95.817s171.593 36.635 230.467 95.817zM778.89 824.767c-53.451 38.359-117.293 65.887-186.449 77.947l-2.747-112.406c41.362-9.524 77.859-25.118 110.637-46.027zM434.306 903.111c-71.905-12.446-135.749-39.975-190.575-79.284l81.024-78.704c31.366 20.081 67.865 35.676 106.873 44.726zM56.889 525.694h112.803c9.518 41.362 25.112 77.86 46.026 110.634l-80.484 78.562c-38.359-53.451-65.887-117.293-77.947-186.449zM135.233 181.11l79.644 79.644c-20.068 31.367-35.662 67.865-44.724 106.868l-113.264 2.359c12.508-71.786 40.029-135.511 79.285-190.251zM245.11 71.233c53.451-38.359 117.293-65.887 186.449-77.947l2.747 112.406c-41.362 9.518-77.86 25.112-110.634 46.026zM589.694-7.111c71.903 12.457 135.745 39.986 190.578 79.285l-81.026 78.703c-31.366-20.074-67.865-35.668-106.87-44.725zM809.123 261.079l79.644-79.644c38.315 53.36 65.836 117.085 77.944 186.115l-112.402 2.756c-9.479-41.479-25.078-78.092-46.027-110.963zM888.767 716.19l-79.644-79.644c20.074-31.366 35.668-67.865 44.725-106.87l113.263-2.356c-12.708 71.316-40.202 134.572-79.28 188.94zM986.291 256.853c-77.911-189.504-261.077-320.504-474.84-320.504-141.162 0-268.98 57.127-361.599 149.522-92.669 92.669-149.992 220.704-149.992 362.128 0 282.848 229.293 512.141 512.141 512.141 141.424 0 269.459-57.323 362.138-150.003 92.688-92.758 150.013-220.864 150.013-362.359 0-69.402-13.791-135.584-38.783-195.953zM640.081 524.719l-54.613-54.613c2.055-6.616 3.239-14.222 3.239-22.105s-1.184-15.489-3.384-22.651l54.758-54.067c1.037 0.070 2.247 0.109 3.466 0.109 30.342 0 54.938-24.597 54.938-54.938s-24.597-54.938-54.938-54.938c-30.342 0-54.938 24.597-54.938 54.938 0 1.22 0.040 2.43 0.118 3.63l-54.622 54.45c-6.616-2.055-14.222-3.239-22.105-3.239s-15.489 1.184-22.651 3.384l-54.067-54.758c0.070-1.037 0.109-2.247 0.109-3.466 0-30.342-24.597-54.938-54.938-54.938s-54.938 24.597-54.938 54.938c0 30.342 24.597 54.938 54.938 54.938 1.22 0 2.43-0.040 3.63-0.118l54.45 54.622c-2.055 6.616-3.239 14.222-3.239 22.105s1.184 15.489 3.384 22.651l-54.758 54.067c-1.037-0.070-2.247-0.109-3.466-0.109-30.342 0-54.938 24.597-54.938 54.938s24.597 54.938 54.938 54.938c30.342 0 54.938-24.597 54.938-54.938 0-1.22-0.040-2.43-0.118-3.63l54.622-54.45c6.616 2.055 14.222 3.239 22.105 3.239s15.489-1.184 22.651-3.384l54.067 54.758c-0.070 1.037-0.109 2.247-0.109 3.466 0 30.342 24.597 54.938 54.938 54.938s54.938-24.597 54.938-54.938c0-30.342-24.597-54.938-54.938-54.938-1.22 0-2.43 0.040-3.63 0.118z" />
<glyph unicode="&#xe91c;" glyph-name="slots" horiz-adv-x="1622" d="M296.048 641.648c-98.345-182.495-126.733-324.943-136.871-549.006h144.982c10.139 276.784 23.319 399.968 144.982 591.588v118.622h-380.198v-161.204zM0 960h516.562v-1024h-516.562zM848.602 641.648c-98.345-182.495-126.733-324.943-138.899-548.499h143.461c10.139 276.784 23.319 399.968 144.982 591.588v118.115h-376.65v-161.204zM552.554 960h517.069v-1024h-517.069zM1401.663 641.648c-98.345-182.495-126.733-324.943-136.871-549.006h143.461c10.139 276.784 23.319 399.968 144.982 591.588v118.622h-378.677v-161.204zM1105.616 960h516.562v-1024h-516.562z" />
<glyph unicode="&#xe91d;" glyph-name="jackpots" horiz-adv-x="1100" d="M200.744 414.485c-66.685-123.746-85.935-220.337-92.81-372.27h98.309c6.875 187.682 15.812 271.21 98.309 401.144v80.435h-257.805v-109.309zM0 630.010h350.271v-694.354h-350.271zM575.42 414.485c-66.685-123.746-85.935-220.337-92.81-372.27h97.278c6.875 187.682 15.812 271.21 98.309 401.144v80.435h-256.773v-109.309zM374.676 630.010h350.614v-694.354h-350.614zM950.44 414.485c-66.685-123.746-85.935-220.337-92.81-372.27h97.278c6.875 187.682 15.812 271.21 98.309 401.144v80.435h-256.773v-109.309zM749.696 630.354h350.271v-694.354h-350.271zM549.983 960l49.842-100.716 111.028-16.156-80.435-78.373 18.906-110.684-99.341 52.248-99.341-52.248 18.906 110.684-80.435 78.373 111.028 16.156 49.842 100.716zM175.307 910.502l41.592-84.56 93.153-13.406-67.373-65.654 15.812-92.81-83.185 43.655-83.529-43.655 15.812 92.81-67.373 65.654 93.153 13.406 41.936 84.56zM924.659 910.502l41.936-84.56 93.153-13.406-67.373-65.654 15.812-92.81-83.529 43.655-83.185-43.655 15.812 92.81-67.373 65.654 93.153 13.406 41.592 84.56z" />
<glyph unicode="&#xe91e;" glyph-name="blackjack" horiz-adv-x="1072" d="M525.929 276.326h-173.184c6.015 8.639 12.414 16.21 19.447 23.139q11.767 12.102 55.734 48.35c22.298 17.776 42.233 36.008 60.872 55.491 15.185 16.45 28.147 34.876 38.489 54.877 8.614 17.543 13.9 36.374 15.393 56.262 0.299 3.334 0.452 6.613 0.452 9.928 0 30.621-13.060 58.192-33.913 77.446-24.753 21.198-57.061 34.059-92.373 34.059-3.897 0-7.757-0.157-11.575-0.464-1.048 0.081-2.871 0.109-4.7 0.109-36.999 0-71.354-11.317-99.794-30.679-30.048-23.673-50.764-59.211-55.043-99.653l86.201-9.030c1.262 20.308 9.451 38.491 22.209 52.422 11.015 9.76 25.674 15.761 41.734 15.761 0.883 0 1.762-0.018 2.636-0.054 0.939 0.076 2.181 0.117 3.433 0.117 14.871 0 28.39-5.792 38.424-15.243 8.227-9.368 13.265-21.767 13.265-35.343 0-2.678-0.196-5.31-0.575-7.883-2.060-19.437-9.824-37.040-21.574-51.219-23.585-25.482-48.8-48.889-75.693-70.275-40.768-32.211-75.267-66.71-105.427-104.8-18.013-24.957-30.449-53.085-36.358-83.543l305.206-1.334zM738.381 198.796l30.542 439.337h-70.482c-13.865-28.833-34.585-52.459-60.117-69.416-14.664-10.62-30.604-20.329-47.33-28.702l-1.967-76.073c32.518 13.465 60.553 30.62 85.424 51.431l-22.326-316.576zM349.053-64.336c38.382 56.414 68.402 122.155 86.338 192.72-138.025-78.271-337.723-90.018-410.554 44.234-94.311 174.526 100.017 392.013 265.146 510.154 101.275 73.659 184.153 166.181 244.8 272.977 64.451-106.645 146.547-199.135 244.527-271.313 167.496-119.805 361.824-337.292 267.848-511.818-73.838-134.251-272.865-122.504-409.466-39.94 18.314-74.788 47.789-140.561 87.006-199.274z" />
<glyph unicode="&#xe91f;" glyph-name="baccarat" horiz-adv-x="1076" d="M300.741 748.405c-23.456-41.294-46.705-76.348-72.059-109.715l-31.888-43.683c-6.392-8.41-13.12-17.829-19.175-26.912-12.305-17.095-23.546-36.54-32.785-57.081-5.192-13.101-7.707-25.815-7.707-39.116 0-1.779 0.045-3.548 0.134-5.306-0.040-0.499-0.056-1.374-0.056-2.253 0-26.922 15.813-50.151 38.658-60.906 13.014-5.775 27.718-9.036 43.183-9.036 1.757 0 3.505 0.042 5.241 0.125 29.022-0.009 43.151 28.921 56.943 44.395-0.055-14.008-1.893-27.562-5.297-40.48-4.158-13.92-9.421-26.86-15.803-39.125-2.112-4.832-5.476-10.551-8.84-16.269-3.443-4.851-6.593-10.377-9.177-16.208 42.481-0.612 83.858-0.612 124.226-0.612-22.642 31.413-37.402 69.887-40.656 111.591 10.438-15.182 23.817-28.347 39.452-38.277 7.986-3.237 16.618-4.93 25.646-4.93 4.681 0 9.256 0.455 13.682 1.324 35.534 1.412 64.142 30.942 64.142 67.153 0 0.019 0 0.038 0 0.057 0.129 2.055 0.202 4.459 0.202 6.881 0 24.692-7.623 47.604-20.643 66.51-30.355 54.438-73.414 98.842-106.718 149.975-14.129 20.857-27.921 41.377-40.704 61.898zM498.88 19.763h-406.371c-0.001 0-0.002 0-0.002 0-50.855 0-92.126 41.035-92.507 91.801v755.926c0 51.092 41.418 92.51 92.51 92.51h420.499c51.092 0 92.51-41.418 92.51-92.51v-321.261c-109.616-60.954-182.558-176.089-182.558-308.261 0-82.769 28.605-158.856 76.467-218.917zM982.623 61.141l49.451 86.118-36.668 20.857c6.781 20.816 10.691 44.768 10.691 69.635s-3.91 48.819-11.149 71.278l37.125 19.214-49.451 86.118-37.004-21.193c-31.425 34.661-72.938 59.653-119.89 70.347l-1.55 43.020h-100.92v-42.386c-48.502-10.991-90.015-35.983-121.267-70.45l-35.495 20.663-49.451-86.118 36.668-20.857c-6.781-20.816-10.691-44.768-10.691-69.635s3.91-48.819 11.149-71.278l-37.125-19.214 49.451-86.118 37.004 21.193c31.32-35.046 72.84-60.379 119.879-71.346l1.561-42.693h100.92v42.386c48.502 10.991 90.015 35.983 121.267 70.45zM773.719 539.837c167.209 0 302.76-135.55 302.76-302.76s-135.55-302.76-302.76-302.76c-167.209 0-302.76 135.55-302.76 302.76s135.55 302.76 302.76 302.76zM571.879 237.078c0 111.473 90.367 201.84 201.84 201.84s201.84-90.367 201.84-201.84c0-111.473-90.367-201.84-201.84-201.84-0.001 0-0.002 0-0.003 0-111.473 0-201.84 90.367-201.84 201.84 0 0.355 0.001 0.709 0.003 1.064z" />
<glyph unicode="&#xe920;" glyph-name="refresh" horiz-adv-x="878" d="M863.429 356.571c0-1.143 0-2.857-0.571-4-48.571-202.286-215.429-343.429-426.286-343.429-111.429 0-219.429 44-300.571 121.143l-73.714-73.714c-6.857-6.857-16-10.857-25.714-10.857-20 0-36.571 16.571-36.571 36.571v256c0 20 16.571 36.571 36.571 36.571h256c20 0 36.571-16.571 36.571-36.571 0-9.714-4-18.857-10.857-25.714l-78.286-78.286c53.714-50.286 125.143-78.857 198.857-78.857 101.714 0 196 52.571 249.143 139.429 13.714 22.286 20.571 44 30.286 66.857 2.857 8 8.571 13.143 17.143 13.143h109.714c10.286 0 18.286-8.571 18.286-18.286zM877.714 813.714v-256c0-20-16.571-36.571-36.571-36.571h-256c-20 0-36.571 16.571-36.571 36.571 0 9.714 4 18.857 10.857 25.714l78.857 78.857c-54.286 50.286-125.714 78.286-199.429 78.286-101.714 0-196-52.571-249.143-139.429-13.714-22.286-20.571-44-30.286-66.857-2.857-8-8.571-13.143-17.143-13.143h-113.714c-10.286 0-18.286 8.571-18.286 18.286v4c49.143 202.857 217.714 343.429 428.571 343.429 112 0 221.143-44.571 302.286-121.143l74.286 73.714c6.857 6.857 16 10.857 25.714 10.857 20 0 36.571-16.571 36.571-36.571z" />
<glyph unicode="&#xe921;" glyph-name="exclamation-circle" horiz-adv-x="878" d="M438.857 886.857c242.286 0 438.857-196.571 438.857-438.857s-196.571-438.857-438.857-438.857-438.857 196.571-438.857 438.857 196.571 438.857 438.857 438.857zM512 174.286v108.571c0 10.286-8 18.857-17.714 18.857h-109.714c-10.286 0-18.857-8.571-18.857-18.857v-108.571c0-10.286 8.571-18.857 18.857-18.857h109.714c9.714 0 17.714 8.571 17.714 18.857zM510.857 370.857l10.286 354.857c0 4-1.714 8-5.714 10.286-3.429 2.857-8.571 4.571-13.714 4.571h-125.714c-5.143 0-10.286-1.714-13.714-4.571-4-2.286-5.714-6.286-5.714-10.286l9.714-354.857c0-8 8.571-14.286 19.429-14.286h105.714c10.286 0 18.857 6.286 19.429 14.286z" />
<glyph unicode="&#xe922;" glyph-name="question-circle" horiz-adv-x="878" d="M512 173.714v109.714c0 10.286-8 18.286-18.286 18.286h-109.714c-10.286 0-18.286-8-18.286-18.286v-109.714c0-10.286 8-18.286 18.286-18.286h109.714c10.286 0 18.286 8 18.286 18.286zM658.286 557.714c0 104.571-109.714 182.857-208 182.857-93.143 0-162.857-40-212-121.714-5.143-8-2.857-18.286 4.571-24l75.429-57.143c2.857-2.286 6.857-3.429 10.857-3.429 5.143 0 10.857 2.286 14.286 6.857 26.857 34.286 38.286 44.571 49.143 52.571 9.714 6.857 28.571 13.714 49.143 13.714 36.571 0 70.286-23.429 70.286-48.571 0-29.714-15.429-44.571-50.286-60.571-40.571-18.286-96-65.714-96-121.143v-20.571c0-10.286 8-18.286 18.286-18.286h109.714c10.286 0 18.286 8 18.286 18.286v0c0 13.143 16.571 41.143 43.429 56.571 43.429 24.571 102.857 57.714 102.857 144.571zM877.714 448c0-242.286-196.571-438.857-438.857-438.857s-438.857 196.571-438.857 438.857 196.571 438.857 438.857 438.857 438.857-196.571 438.857-438.857z" />
<glyph unicode="&#xe923;" glyph-name="question-circle-o" horiz-adv-x="878" d="M502.857 274.286v-91.429c0-10.286-8-18.286-18.286-18.286h-91.429c-10.286 0-18.286 8-18.286 18.286v91.429c0 10.286 8 18.286 18.286 18.286h91.429c10.286 0 18.286-8 18.286-18.286zM649.143 557.714c0-81.143-56.571-113.143-98.286-136.571-29.714-17.143-48-28-48-46.286v-18.286c0-10.286-8-18.286-18.286-18.286h-91.429c-10.286 0-18.286 8-18.286 18.286v38.857c0 70.286 50.286 92.571 90.857 110.857 34.286 16 55.429 26.857 55.429 52.571 0 33.143-41.714 57.714-79.429 57.714-20 0-41.143-6.286-54.286-15.429-12.571-8.571-24.571-21.143-45.714-47.429-3.429-4.571-8.571-6.857-14.286-6.857-4 0-8 1.143-10.857 3.429l-61.714 46.857c-7.429 5.714-9.143 16.571-4 24.571 46.857 73.714 112.571 109.714 199.429 109.714v0c93.714 0 198.857-74.286 198.857-173.714zM438.857 813.714c-201.714 0-365.714-164-365.714-365.714s164-365.714 365.714-365.714 365.714 164 365.714 365.714-164 365.714-365.714 365.714zM877.714 448c0-242.286-196.571-438.857-438.857-438.857s-438.857 196.571-438.857 438.857 196.571 438.857 438.857 438.857v0c242.286 0 438.857-196.571 438.857-438.857z" />
<glyph unicode="&#xe924;" glyph-name="check-circle" horiz-adv-x="878" d="M733.714 540.571c0 9.714-3.429 19.429-10.286 26.286l-52 51.429c-6.857 6.857-16 10.857-25.714 10.857s-18.857-4-25.714-10.857l-233.143-232.571-129.143 129.143c-6.857 6.857-16 10.857-25.714 10.857s-18.857-4-25.714-10.857l-52-51.429c-6.857-6.857-10.286-16.571-10.286-26.286s3.429-18.857 10.286-25.714l206.857-206.857c6.857-6.857 16.571-10.857 25.714-10.857 9.714 0 19.429 4 26.286 10.857l310.286 310.286c6.857 6.857 10.286 16 10.286 25.714zM877.714 448c0-242.286-196.571-438.857-438.857-438.857s-438.857 196.571-438.857 438.857 196.571 438.857 438.857 438.857 438.857-196.571 438.857-438.857z" />
<glyph unicode="&#xe925;" glyph-name="check-circle-o" horiz-adv-x="878" d="M669.143 495.429l-241.143-241.143c-14.286-14.286-37.143-14.286-51.429 0l-168 168c-14.286 14.286-14.286 37.143 0 51.429l58.286 58.286c14.286 14.286 37.143 14.286 51.429 0l84-84 157.143 157.143c14.286 14.286 37.143 14.286 51.429 0l58.286-58.286c14.286-14.286 14.286-37.143 0-51.429zM749.714 448c0 171.429-139.429 310.857-310.857 310.857s-310.857-139.429-310.857-310.857 139.429-310.857 310.857-310.857 310.857 139.429 310.857 310.857zM877.714 448c0-242.286-196.571-438.857-438.857-438.857s-438.857 196.571-438.857 438.857 196.571 438.857 438.857 438.857 438.857-196.571 438.857-438.857z" />
<glyph unicode="&#xe926;" glyph-name="times-circle" horiz-adv-x="878" d="M656.571 318.857c0 9.714-4 18.857-10.857 25.714l-103.429 103.429 103.429 103.429c6.857 6.857 10.857 16 10.857 25.714s-4 19.429-10.857 26.286l-51.429 51.429c-6.857 6.857-16.571 10.857-26.286 10.857s-18.857-4-25.714-10.857l-103.429-103.429-103.429 103.429c-6.857 6.857-16 10.857-25.714 10.857s-19.429-4-26.286-10.857l-51.429-51.429c-6.857-6.857-10.857-16.571-10.857-26.286s4-18.857 10.857-25.714l103.429-103.429-103.429-103.429c-6.857-6.857-10.857-16-10.857-25.714s4-19.429 10.857-26.286l51.429-51.429c6.857-6.857 16.571-10.857 26.286-10.857s18.857 4 25.714 10.857l103.429 103.429 103.429-103.429c6.857-6.857 16-10.857 25.714-10.857s19.429 4 26.286 10.857l51.429 51.429c6.857 6.857 10.857 16.571 10.857 26.286zM877.714 448c0-242.286-196.571-438.857-438.857-438.857s-438.857 196.571-438.857 438.857 196.571 438.857 438.857 438.857 438.857-196.571 438.857-438.857z" />
<glyph unicode="&#xe927;" glyph-name="times-circle-o" horiz-adv-x="878" d="M626.857 343.429l-83.429-83.429c-7.429-7.429-18.857-7.429-26.286 0l-78.286 78.286-78.286-78.286c-7.429-7.429-18.857-7.429-26.286 0l-83.429 83.429c-7.429 7.429-7.429 18.857 0 26.286l78.286 78.286-78.286 78.286c-7.429 7.429-7.429 18.857 0 26.286l83.429 83.429c7.429 7.429 18.857 7.429 26.286 0l78.286-78.286 78.286 78.286c7.429 7.429 18.857 7.429 26.286 0l83.429-83.429c7.429-7.429 7.429-18.857 0-26.286l-78.286-78.286 78.286-78.286c7.429-7.429 7.429-18.857 0-26.286zM749.714 448c0 171.429-139.429 310.857-310.857 310.857s-310.857-139.429-310.857-310.857 139.429-310.857 310.857-310.857 310.857 139.429 310.857 310.857zM877.714 448c0-242.286-196.571-438.857-438.857-438.857s-438.857 196.571-438.857 438.857 196.571 438.857 438.857 438.857 438.857-196.571 438.857-438.857z" />
<glyph unicode="&#xe928;" glyph-name="close, remove, times" horiz-adv-x="805" d="M741.714 204.571c0-14.286-5.714-28.571-16-38.857l-77.714-77.714c-10.286-10.286-24.571-16-38.857-16s-28.571 5.714-38.857 16l-168 168-168-168c-10.286-10.286-24.571-16-38.857-16s-28.571 5.714-38.857 16l-77.714 77.714c-10.286 10.286-16 24.571-16 38.857s5.714 28.571 16 38.857l168 168-168 168c-10.286 10.286-16 24.571-16 38.857s5.714 28.571 16 38.857l77.714 77.714c10.286 10.286 24.571 16 38.857 16s28.571-5.714 38.857-16l168-168 168 168c10.286 10.286 24.571 16 38.857 16s28.571-5.714 38.857-16l77.714-77.714c10.286-10.286 16-24.571 16-38.857s-5.714-28.571-16-38.857l-168-168 168-168c10.286-10.286 16-24.571 16-38.857z" />
<glyph unicode="&#xe929;" glyph-name="eur, euro" horiz-adv-x="580" d="M557.714 213.143l20-90.857c2.286-9.143-2.857-18.286-11.429-21.143-2.286-0.571-55.429-18.857-124-18.857-178.286 0-321.714 107.429-369.714 275.429h-54.286c-10.286 0-18.286 8.571-18.286 18.286v64.571c0 9.714 8 18.286 18.286 18.286h37.714c-0.571 18.286-0.571 40 0.571 60h-38.286c-10.286 0-18.286 8-18.286 18.286v65.143c0 10.286 8 18.286 18.286 18.286h56c50.857 160 197.143 266.286 368 266.286 59.429 0 108.571-12.571 110.857-13.143 4.571-1.143 8.571-4.571 11.429-8.571 2.286-4 2.857-9.143 1.714-13.714l-24.571-90.857c-2.286-9.714-12-15.429-21.714-12.571-0.571 0-39.429 9.714-80 9.714-96 0-176.571-52-214.857-137.143h267.429c5.714 0 10.857-2.286 14.286-6.857 3.429-4 5.143-9.714 4-14.857l-13.714-65.143c-1.714-8.571-9.143-14.857-18.286-14.857h-278.857c-1.714-18.286-1.143-37.714 0-60h262.286c5.714 0 10.857-2.857 14.286-6.857 3.429-4.571 4.571-10.286 3.429-15.429l-13.714-64c-1.714-8.571-9.143-14.857-17.714-14.857h-221.143c36.571-89.143 118.857-145.143 216-145.143 49.714 0 90.286 13.714 90.857 13.714 4.571 1.714 10.286 1.143 14.857-1.143 4.571-2.857 7.429-7.429 8.571-12z" />
<glyph unicode="&#xe92a;" glyph-name="printer" d="M192 608v192.083c0 35.249 28.617 63.917 63.918 63.917h480.165c35.408 0 63.918-28.616 63.918-63.917v-192.083h-608zM160 96h-32.183c-52.919 0-95.817 42.972-95.817 95.982v288.037c0 52.962 42.899 95.982 95.817 95.982h736.366c52.919 0 95.817-42.972 95.817-95.982v-288.037c0-52.962-42.899-95.982-95.817-95.982h-32.183v256h-672v-256zM192 320v-256.012c0-35.339 28.51-63.988 63.918-63.988h480.165c35.301 0 63.918 28.398 63.918 63.988v256.012h-608zM768 416c17.673 0 32 14.327 32 32s-14.327 32-32 32c-17.673 0-32-14.327-32-32s14.327-32 32-32v0z" />
<glyph unicode="&#xe92b;" glyph-name="printer2" d="M800 96v-32.012c0-35.59-28.617-63.988-63.918-63.988h-480.165c-35.408 0-63.918 28.648-63.918 63.988v32.012h-64.183c-52.919 0-95.817 42.972-95.817 95.982v288.037c0 52.962 42.899 95.982 95.817 95.982h64.183v224.012c0 35.59 28.617 63.988 63.918 63.988h480.165c35.408 0 63.918-28.648 63.918-63.988v-224.012h64.183c52.919 0 95.817-42.972 95.817-95.982v-288.037c0-52.962-42.899-95.982-95.817-95.982h-64.183zM192 128v192h608v-192h63.765c35.476 0 64.235 28.593 64.235 64.088v287.823c0 35.395-28.747 64.088-64.235 64.088h-735.531c-35.476 0-64.235-28.593-64.235-64.088v-287.823c0-35.395 28.747-64.088 64.235-64.088h63.765zM255.999 832c-17.672 0-31.999-14.497-31.999-31.905v-224.095h544v224.095c0 17.621-14.551 31.905-31.999 31.905h-480.003zM224 288v-224.095c0-17.621 14.551-31.905 31.999-31.905h480.003c17.672 0 31.999 14.497 31.999 31.905v224.095h-544zM768 416c17.673 0 32 14.327 32 32s-14.327 32-32 32c-17.673 0-32-14.327-32-32s14.327-32 32-32v0z" />
<glyph unicode="&#xe92c;" glyph-name="user-circle" d="M870.286 194.857c-14.857 106.857-58.286 201.714-155.429 214.857-50.286-54.857-122.857-89.714-202.857-89.714s-152.571 34.857-202.857 89.714c-97.143-13.143-140.571-108-155.429-214.857 79.429-112 210.286-185.714 358.286-185.714s278.857 73.714 358.286 185.714zM731.429 594.286c0 121.143-98.286 219.429-219.429 219.429s-219.429-98.286-219.429-219.429 98.286-219.429 219.429-219.429 219.429 98.286 219.429 219.429zM1024 448c0-281.714-228.571-512-512-512-282.857 0-512 229.714-512 512 0 282.857 229.143 512 512 512s512-229.143 512-512z" />
<glyph unicode="&#xe92d;" glyph-name="user-circle-o" d="M512 960c282.857 0 512-229.143 512-512 0-281.143-228-512-512-512-283.429 0-512 230.286-512 512 0 282.857 229.143 512 512 512zM865.714 188c53.143 73.143 85.143 162.857 85.143 260 0 241.714-197.143 438.857-438.857 438.857s-438.857-197.143-438.857-438.857c0-97.143 32-186.857 85.143-260 20.571 102.286 70.286 186.857 174.857 186.857 46.286-45.143 109.143-73.143 178.857-73.143s132.571 28 178.857 73.143c104.571 0 154.286-84.571 174.857-186.857zM731.429 557.714c0 121.143-98.286 219.429-219.429 219.429s-219.429-98.286-219.429-219.429 98.286-219.429 219.429-219.429 219.429 98.286 219.429 219.429z" />
<glyph unicode="&#xe92e;" glyph-name="user" horiz-adv-x="731" d="M731.429 160.571c0-83.429-54.857-151.429-121.714-151.429h-488c-66.857 0-121.714 68-121.714 151.429 0 150.286 37.143 324 186.857 324 46.286-45.143 109.143-73.143 178.857-73.143s132.571 28 178.857 73.143c149.714 0 186.857-173.714 186.857-324zM585.143 667.429c0-121.143-98.286-219.429-219.429-219.429s-219.429 98.286-219.429 219.429 98.286 219.429 219.429 219.429 219.429-98.286 219.429-219.429z" />
<glyph unicode="&#xe92f;" glyph-name="user-plus" horiz-adv-x="1170" d="M402.286 448c-121.143 0-219.429 98.286-219.429 219.429s98.286 219.429 219.429 219.429 219.429-98.286 219.429-219.429-98.286-219.429-219.429-219.429zM950.857 374.857h201.143c9.714 0 18.286-8.571 18.286-18.286v-109.714c0-9.714-8.571-18.286-18.286-18.286h-201.143v-201.143c0-9.714-8.571-18.286-18.286-18.286h-109.714c-9.714 0-18.286 8.571-18.286 18.286v201.143h-201.143c-9.714 0-18.286 8.571-18.286 18.286v109.714c0 9.714 8.571 18.286 18.286 18.286h201.143v201.143c0 9.714 8.571 18.286 18.286 18.286h109.714c9.714 0 18.286-8.571 18.286-18.286v-201.143zM530.286 246.857c0-40 33.143-73.143 73.143-73.143h146.286v-136c-28-20.571-63.429-28.571-97.714-28.571h-499.429c-91.429 0-152.571 54.857-152.571 148 0 129.143 30.286 327.429 197.714 327.429 9.143 0 15.429-4 22.286-9.714 56-42.857 110.286-69.714 182.286-69.714s126.286 26.857 182.286 69.714c6.857 5.714 13.143 9.714 22.286 9.714 48.571 0 91.429-18.286 124-54.857h-127.429c-40 0-73.143-33.143-73.143-73.143v-109.714z" />
<glyph unicode="&#xe930;" glyph-name="user-times" horiz-adv-x="1165" d="M402.286 448c-121.143 0-219.429 98.286-219.429 219.429s98.286 219.429 219.429 219.429 219.429-98.286 219.429-219.429-98.286-219.429-219.429-219.429zM1017.714 265.143l142.286-142.286c3.429-3.429 5.143-8 5.143-13.143 0-4.571-1.714-9.143-5.143-12.571l-77.714-77.714c-3.429-3.429-8-5.143-12.571-5.143-5.143 0-9.714 1.714-13.143 5.143l-142.286 142.286-142.286-142.286c-3.429-3.429-8-5.143-13.143-5.143-4.571 0-9.143 1.714-12.571 5.143l-77.714 77.714c-3.429 3.429-5.143 8-5.143 12.571 0 5.143 1.714 9.714 5.143 13.143l142.286 142.286-142.286 142.286c-3.429 3.429-5.143 8-5.143 13.143 0 4.571 1.714 9.143 5.143 12.571l77.714 77.714c3.429 3.429 8 5.143 12.571 5.143 5.143 0 9.714-1.714 13.143-5.143l142.286-142.286 142.286 142.286c3.429 3.429 8 5.143 13.143 5.143 4.571 0 9.143-1.714 12.571-5.143l77.714-77.714c3.429-3.429 5.143-8 5.143-12.571 0-5.143-1.714-9.714-5.143-13.143zM733.143 265.143l-103.429-103.429c-13.714-13.714-21.143-32.571-21.143-52 0-18.857 7.429-37.714 21.143-51.429l47.429-47.429c-8-1.143-16.571-1.714-25.143-1.714h-499.429c-91.429 0-152.571 54.857-152.571 148 0 129.143 30.286 327.429 197.714 327.429 9.143 0 15.429-4 22.286-9.714 54.857-43.429 110.857-69.714 182.286-69.714s127.429 26.286 182.286 69.714c6.857 5.714 13.143 9.714 22.286 9.714 10.857 0 21.714-1.143 32.571-3.429-18.857-18.286-30.857-33.143-30.857-60.571 0-19.429 7.429-38.286 21.143-52z" />
<glyph unicode="&#xe931;" glyph-name="user-o" horiz-adv-x="878" d="M686.286 512c80.571-23.429 191.429-102.857 191.429-362.857 0-117.714-87.429-213.143-194.857-213.143h-488c-107.429 0-194.857 95.429-194.857 213.143 0 260 110.857 339.429 191.429 362.857-28.571 45.143-45.143 98.286-45.143 155.429 0 161.143 131.429 292.571 292.571 292.571s292.571-131.429 292.571-292.571c0-57.143-16.571-110.286-45.143-155.429zM438.857 886.857c-121.143 0-219.429-98.286-219.429-219.429s98.286-219.429 219.429-219.429 219.429 98.286 219.429 219.429-98.286 219.429-219.429 219.429zM682.857 9.143c66.857 0 121.714 62.286 121.714 140 0 180-60.571 292.571-173.714 298.286-51.429-45.143-118.286-72.571-192-72.571s-140.571 27.429-192 72.571c-113.143-5.714-173.714-118.286-173.714-298.286 0-77.714 54.857-140 121.714-140h488z" />
<glyph unicode="&#xe932;" glyph-name="group, users" horiz-adv-x="1097" d="M338.857 448c-59.429-1.714-113.143-27.429-151.429-73.143h-76.571c-57.143 0-110.857 27.429-110.857 90.857 0 46.286-1.714 201.714 70.857 201.714 12 0 71.429-48.571 148.571-48.571 26.286 0 51.429 4.571 76 13.143-1.714-12.571-2.857-25.143-2.857-37.714 0-52 16.571-103.429 46.286-146.286zM950.857 84c0-92.571-61.143-148-152.571-148h-499.429c-91.429 0-152.571 55.429-152.571 148 0 129.143 30.286 327.429 197.714 327.429 19.429 0 90.286-79.429 204.571-79.429s185.143 79.429 204.571 79.429c167.429 0 197.714-198.286 197.714-327.429zM365.714 813.714c0-80.571-65.714-146.286-146.286-146.286s-146.286 65.714-146.286 146.286 65.714 146.286 146.286 146.286 146.286-65.714 146.286-146.286zM768 594.286c0-121.143-98.286-219.429-219.429-219.429s-219.429 98.286-219.429 219.429 98.286 219.429 219.429 219.429 219.429-98.286 219.429-219.429zM1097.143 465.714c0-63.429-53.714-90.857-110.857-90.857h-76.571c-38.286 45.714-92 71.429-151.429 73.143 29.714 42.857 46.286 94.286 46.286 146.286 0 12.571-1.143 25.143-2.857 37.714 24.571-8.571 49.714-13.143 76-13.143 77.143 0 136.571 48.571 148.571 48.571 72.571 0 70.857-155.429 70.857-201.714zM1024 813.714c0-80.571-65.714-146.286-146.286-146.286s-146.286 65.714-146.286 146.286 65.714 146.286 146.286 146.286 146.286-65.714 146.286-146.286z" />
<glyph unicode="&#xe933;" glyph-name="chevron-circle-right" horiz-adv-x="878" d="M409.714 162.857l259.429 259.429c14.286 14.286 14.286 37.143 0 51.429l-259.429 259.429c-14.286 14.286-37.143 14.286-51.429 0l-58.286-58.286c-14.286-14.286-14.286-37.143 0-51.429l175.429-175.429-175.429-175.429c-14.286-14.286-14.286-37.143 0-51.429l58.286-58.286c14.286-14.286 37.143-14.286 51.429 0zM877.714 448c0-242.286-196.571-438.857-438.857-438.857s-438.857 196.571-438.857 438.857 196.571 438.857 438.857 438.857 438.857-196.571 438.857-438.857z" />
<glyph unicode="&#xe934;" glyph-name="chevron-circle-left" horiz-adv-x="878" d="M519.429 162.857l58.286 58.286c14.286 14.286 14.286 37.143 0 51.429l-175.429 175.429 175.429 175.429c14.286 14.286 14.286 37.143 0 51.429l-58.286 58.286c-14.286 14.286-37.143 14.286-51.429 0l-259.429-259.429c-14.286-14.286-14.286-37.143 0-51.429l259.429-259.429c14.286-14.286 37.143-14.286 51.429 0zM877.714 448c0-242.286-196.571-438.857-438.857-438.857s-438.857 196.571-438.857 438.857 196.571 438.857 438.857 438.857 438.857-196.571 438.857-438.857z" />
<glyph unicode="&#xe935;" glyph-name="chevron-circle-up" horiz-adv-x="878" d="M665.714 309.143l58.286 58.286c14.286 14.286 14.286 37.143 0 51.429l-259.429 259.429c-14.286 14.286-37.143 14.286-51.429 0l-259.429-259.429c-14.286-14.286-14.286-37.143 0-51.429l58.286-58.286c14.286-14.286 37.143-14.286 51.429 0l175.429 175.429 175.429-175.429c14.286-14.286 37.143-14.286 51.429 0zM877.714 448c0-242.286-196.571-438.857-438.857-438.857s-438.857 196.571-438.857 438.857 196.571 438.857 438.857 438.857 438.857-196.571 438.857-438.857z" />
<glyph unicode="&#xe936;" glyph-name="chevron-circle-down" horiz-adv-x="878" d="M464.571 217.714l259.429 259.429c14.286 14.286 14.286 37.143 0 51.429l-58.286 58.286c-14.286 14.286-37.143 14.286-51.429 0l-175.429-175.429-175.429 175.429c-14.286 14.286-37.143 14.286-51.429 0l-58.286-58.286c-14.286-14.286-14.286-37.143 0-51.429l259.429-259.429c14.286-14.286 37.143-14.286 51.429 0zM877.714 448c0-242.286-196.571-438.857-438.857-438.857s-438.857 196.571-438.857 438.857 196.571 438.857 438.857 438.857 438.857-196.571 438.857-438.857z" />
<glyph unicode="&#xe937;" glyph-name="chevron-right" horiz-adv-x="695" d="M632.571 458.857l-424-424c-14.286-14.286-37.143-14.286-51.429 0l-94.857 94.857c-14.286 14.286-14.286 37.143 0 51.429l303.429 303.429-303.429 303.429c-14.286 14.286-14.286 37.143 0 51.429l94.857 94.857c14.286 14.286 37.143 14.286 51.429 0l424-424c14.286-14.286 14.286-37.143 0-51.429z" />
<glyph unicode="&#xe938;" glyph-name="chevron-left" horiz-adv-x="768" d="M669.143 788l-303.429-303.429 303.429-303.429c14.286-14.286 14.286-37.143 0-51.429l-94.857-94.857c-14.286-14.286-37.143-14.286-51.429 0l-424 424c-14.286 14.286-14.286 37.143 0 51.429l424 424c14.286 14.286 37.143 14.286 51.429 0l94.857-94.857c14.286-14.286 14.286-37.143 0-51.429z" />
<glyph unicode="&#xe939;" glyph-name="chevron-up" d="M961.714 199.429l-94.857-94.286c-14.286-14.286-37.143-14.286-51.429 0l-303.429 303.429-303.429-303.429c-14.286-14.286-37.143-14.286-51.429 0l-94.857 94.286c-14.286 14.286-14.286 37.714 0 52l424 423.429c14.286 14.286 37.143 14.286 51.429 0l424-423.429c14.286-14.286 14.286-37.714 0-52z" />
<glyph unicode="&#xe93a;" glyph-name="chevron-down" d="M961.714 498.286l-424-423.429c-14.286-14.286-37.143-14.286-51.429 0l-424 423.429c-14.286 14.286-14.286 37.714 0 52l94.857 94.286c14.286 14.286 37.143 14.286 51.429 0l303.429-303.429 303.429 303.429c14.286 14.286 37.143 14.286 51.429 0l94.857-94.286c14.286-14.286 14.286-37.714 0-52z" />
<glyph unicode="&#xe93b;" glyph-name="eye, views" d="M512 768c-282.784 0-512-320-512-320s229.216-320 512-320 512 320 512 320-229.216 320-512 320zM512 256c-106.016 0-192 85.984-192 192s85.984 192 192 192 192-85.984 192-192-85.984-192-192-192zM512 576c-70.688 0-128-57.312-128-128s57.312-128 128-128 128 57.312 128 128-57.312 128-128 128z" />
<glyph unicode="&#xe93c;" glyph-name="envelope" d="M1024 554.286v-453.714c0-50.286-41.143-91.429-91.429-91.429h-841.143c-50.286 0-91.429 41.143-91.429 91.429v453.714c17.143-18.857 36.571-35.429 57.714-49.714 94.857-64.571 190.857-129.143 284-197.143 48-35.429 107.429-78.857 169.714-78.857h1.143c62.286 0 121.714 43.429 169.714 78.857 93.143 67.429 189.143 132.571 284.571 197.143 20.571 14.286 40 30.857 57.143 49.714zM1024 722.286c0-64-47.429-121.714-97.714-156.571-89.143-61.714-178.857-123.429-267.429-185.714-37.143-25.714-100-78.286-146.286-78.286h-1.143c-46.286 0-109.143 52.571-146.286 78.286-88.571 62.286-178.286 124-266.857 185.714-40.571 27.429-98.286 92-98.286 144 0 56 30.286 104 91.429 104h841.143c49.714 0 91.429-41.143 91.429-91.429z" />
<glyph unicode="&#xe93d;" glyph-name="envelope-o" d="M950.857 100.571v438.857c-12-13.714-25.143-26.286-39.429-37.714-81.714-62.857-164-126.857-243.429-193.143-42.857-36-96-80-155.429-80h-1.143c-59.429 0-112.571 44-155.429 80-79.429 66.286-161.714 130.286-243.429 193.143-14.286 11.429-27.429 24-39.429 37.714v-438.857c0-9.714 8.571-18.286 18.286-18.286h841.143c9.714 0 18.286 8.571 18.286 18.286zM950.857 701.143c0 14.286 3.429 39.429-18.286 39.429h-841.143c-9.714 0-18.286-8.571-18.286-18.286 0-65.143 32.571-121.714 84-162.286 76.571-60 153.143-120.571 229.143-181.143 30.286-24.571 85.143-77.143 125.143-77.143h1.143c40 0 94.857 52.571 125.143 77.143 76 60.571 152.571 121.143 229.143 181.143 37.143 29.143 84 92.571 84 141.143zM1024 722.286v-621.714c0-50.286-41.143-91.429-91.429-91.429h-841.143c-50.286 0-91.429 41.143-91.429 91.429v621.714c0 50.286 41.143 91.429 91.429 91.429h841.143c50.286 0 91.429-41.143 91.429-91.429z" />
<glyph unicode="&#xe93e;" glyph-name="sign-out" horiz-adv-x="896" d="M365.714 137.143c0-16 7.429-54.857-18.286-54.857h-182.857c-90.857 0-164.571 73.714-164.571 164.571v402.286c0 90.857 73.714 164.571 164.571 164.571h182.857c9.714 0 18.286-8.571 18.286-18.286 0-16 7.429-54.857-18.286-54.857h-182.857c-50.286 0-91.429-41.143-91.429-91.429v-402.286c0-50.286 41.143-91.429 91.429-91.429h164.571c14.286 0 36.571 2.857 36.571-18.286zM896 448c0-9.714-4-18.857-10.857-25.714l-310.857-310.857c-6.857-6.857-16-10.857-25.714-10.857-20 0-36.571 16.571-36.571 36.571v164.571h-256c-20 0-36.571 16.571-36.571 36.571v219.429c0 20 16.571 36.571 36.571 36.571h256v164.571c0 20 16.571 36.571 36.571 36.571 9.714 0 18.857-4 25.714-10.857l310.857-310.857c6.857-6.857 10.857-16 10.857-25.714z" />
<glyph unicode="&#xe93f;" glyph-name="home" d="M512 832c0 0-263.936-227.84-411.435-351.232-8.661-7.851-15.232-19.285-15.232-32.768 0-23.595 19.072-42.667 42.667-42.667h85.333v-298.667c0-23.595 19.072-42.667 42.667-42.667h128c23.595 0 42.667 19.115 42.667 42.667v170.667h170.667v-170.667c0-23.552 19.072-42.667 42.667-42.667h128c23.595 0 42.667 19.072 42.667 42.667v298.667h85.333c23.595 0 42.667 19.072 42.667 42.667 0 13.483-6.571 24.917-16.341 32.768-146.475 123.392-410.325 351.232-410.325 351.232z" />
<glyph unicode="&#xe940;" glyph-name="menu" d="M896 490.667h-768c-23.467 0-42.667-19.2-42.667-42.667s19.2-42.667 42.667-42.667h768c23.467 0 42.667 19.2 42.667 42.667s-19.2 42.667-42.667 42.667zM128 661.333h768c23.467 0 42.667 19.2 42.667 42.667s-19.2 42.667-42.667 42.667h-768c-23.467 0-42.667-19.2-42.667-42.667s19.2-42.667 42.667-42.667zM896 234.667h-768c-23.467 0-42.667-19.2-42.667-42.667s19.2-42.667 42.667-42.667h768c23.467 0 42.667 19.2 42.667 42.667s-19.2 42.667-42.667 42.667z" />
<glyph unicode="&#xe941;" glyph-name="lifebuoy" d="M512 960c-282.77 0-512-229.23-512-512s229.23-512 512-512 512 229.23 512 512-229.23 512-512 512zM320 448c0 106.040 85.96 192 192 192s192-85.96 192-192-85.96-192-192-192-192 85.96-192 192zM925.98 276.524v0l-177.42 73.49c12.518 30.184 19.44 63.276 19.44 97.986s-6.922 67.802-19.44 97.986l177.42 73.49c21.908-52.822 34.020-110.73 34.020-171.476s-12.114-118.654-34.020-171.476v0zM683.478 861.98v0 0l-73.49-177.42c-30.184 12.518-63.276 19.44-97.988 19.44s-67.802-6.922-97.986-19.44l-73.49 177.422c52.822 21.904 110.732 34.018 171.476 34.018 60.746 0 118.654-12.114 171.478-34.020zM98.020 619.476l177.422-73.49c-12.518-30.184-19.442-63.276-19.442-97.986s6.922-67.802 19.44-97.986l-177.42-73.49c-21.906 52.822-34.020 110.73-34.020 171.476s12.114 118.654 34.020 171.476zM340.524 34.020l73.49 177.42c30.184-12.518 63.276-19.44 97.986-19.44s67.802 6.922 97.986 19.44l73.49-177.42c-52.822-21.904-110.73-34.020-171.476-34.020-60.744 0-118.654 12.114-171.476 34.020z" />
<glyph unicode="&#xe942;" glyph-name="dots-three-vertical" d="M512.051 560.64c-62.208 0-112.691-50.432-112.691-112.64s50.483-112.64 112.691-112.64c62.208 0 112.589 50.432 112.589 112.64s-50.381 112.64-112.589 112.64zM512.051 693.76c62.208 0 112.589 50.483 112.589 112.64s-50.381 112.64-112.589 112.64c-62.208 0-112.691-50.432-112.691-112.64s50.483-112.64 112.691-112.64zM512.051 202.24c-62.208 0-112.691-50.432-112.691-112.64s50.483-112.64 112.691-112.64c62.208 0 112.589 50.432 112.589 112.64s-50.381 112.64-112.589 112.64z" />
<glyph unicode="&#xe943;" glyph-name="casino" horiz-adv-x="5644" d="M1718.367 123.199h-380.503l-61.552-177.025h-236.034l377.959 1001.109h236.034l368.803-1001.109h-242.647zM1650.71 323.116l-120.56 356.085-123.104-356.085zM2465.129 745.84c-59.008 0-97.669-22.891-97.669-68.674 0-165.834 493.941-71.217 493.941-431.372 0-203.477-168.886-308.268-377.451-308.268-165.271 0.463-316.552 59.979-433.942 158.548l96.169 202.624c90.214-83.994 207.771-139.704 337.933-152.42 74.618-0.188 120.4 28.299 120.4 81.203 0 172.956-494.45 71.217-494.45 427.303 0 187.199 148.538 305.216 374.907 305.216 139.614-0.503 269.299-42.589 377.432-114.509l-94.598-206.985c-86.111 56.283-188.89 94.567-299.485 107.042zM3008.413 947.283h256.89v-1001.109h-256.89v1001.109zM3727.197 947.283l477.154-602.802v602.802h254.855v-1001.109h-240.103l-477.154 599.75v-599.75h-256.382v1001.109h241.629zM5123.052 960c1.29 0.012 2.814 0.018 4.34 0.018 71.903 0 140.353-14.785 202.476-41.481 60.713-26.076 115.518-62.945 162.115-108.217 46.259-45.272 83.988-99.296 110.495-159.383 27.33-61.345 42.498-129.136 42.498-200.47 0-0.778-0.002-1.556-0.005-2.333 0.003-0.506 0.005-1.247 0.005-1.988 0-71.37-15.168-139.197-42.456-200.434-26.549-60.228-64.278-114.252-110.574-159.559-46.555-45.247-101.361-82.118-161.935-108.128-63.568-27.17-133.509-42.196-206.96-42.196s-143.391 15.026-206.915 42.172c-60.471 25.934-115.127 62.816-161.475 108.157-45.429 45.21-82.611 98.848-108.976 158.346-27.356 61.194-42.527 128.769-42.527 199.888 0 1 0.003 1.999 0.009 2.998-0.006 0.691-0.009 1.691-0.009 2.691 0 71.119 15.171 138.694 42.453 199.667 26.481 60.136 63.847 114.124 109.631 159.656 46.378 45.691 101.208 82.912 161.915 109.092 62.213 26.733 130.657 41.515 202.553 41.515 1.175 0 2.348-0.004 3.521-0.012zM5123.052 172.034c0.777-0.008 1.696-0.012 2.616-0.012 38.53 0 75.223 7.86 108.565 22.063 65.485 27.746 118.219 79.655 147.036 144.54 14.569 33.446 22.635 70.341 22.635 109.121s-8.066 75.675-22.611 109.101c-28.75 64.965-81.515 116.904-147.036 144.558-34.082 14.374-71.587 22.33-110.949 22.33s-76.867-7.955-110.994-22.346c-32.654-13.94-62.183-33.847-87.189-58.351-24.953-25.107-45.221-54.998-59.287-88.156-14.498-33.504-22.53-70.4-22.53-109.171s8.032-75.666 22.524-109.112c14.427-32.45 34.824-61.645 59.808-86.186 24.986-24.682 54.514-44.752 87.22-58.851 31.674-12.696 66.26-19.651 102.47-19.651 2.895 0 5.78 0.044 8.653 0.133zM519.885 172.034c0.777-0.008 1.696-0.012 2.616-0.012 38.53 0 75.223 7.86 108.565 22.063 32.749 14.082 62.282 34.158 87.233 58.854 19.725 18.528 36.619 39.796 50.14 63.254l255.052 1.327c-7.353-27.32-15.688-50.492-25.65-72.777-26.601-60.262-64.325-114.28-110.593-159.611-46.567-45.212-101.368-82.078-161.923-108.119-62.533-27.069-131.321-42.041-203.607-42.041-1.181 0-2.362 0.004-3.541 0.012-0.877-0.009-2.129-0.013-3.382-0.013-72.216 0-140.935 14.973-203.221 41.985-59.663 26.492-113.454 63.664-158.973 109.116-45.939 45.237-83.457 98.882-110.081 158.462-27.362 61.17-42.535 128.751-42.535 199.875 0 1.352 0.005 2.703 0.016 4.053-0.007 0.669-0.010 1.706-0.010 2.743 0 71.083 15.171 138.622 42.453 199.556 26.647 59.976 64.175 113.795 110.107 159.119 46.141 45.474 100.627 82.515 160.949 108.618 62.201 26.736 130.651 41.521 202.554 41.521 1.526 0 3.050-0.007 4.572-0.020 1.027 0.013 2.516 0.019 4.006 0.019 71.938 0 140.422-14.785 202.581-41.481 60.698-26.111 115.497-62.975 162.116-108.221 46.221-45.287 83.945-99.305 110.485-159.371 9.737-22.084 17.896-44.918 24.378-68.447l-253.523-3.508c-14.277 24.762-31.165 46.024-50.732 64.476-25.084 24.608-54.617 44.518-87.313 58.438-34.093 14.385-71.598 22.341-110.961 22.341s-76.867-7.955-110.994-22.346c-33.431-13.756-63.654-33.696-89.264-58.388-24.971-25.2-45.25-55.267-59.252-88.621-14.547-33.503-22.613-70.398-22.613-109.178s8.066-75.675 22.611-109.101c14.531-31.452 34.717-59.778 59.273-83.628 25.168-24.72 54.864-44.795 87.738-58.875 33.355-14.223 70.011-22.082 108.503-22.082 0.78 0 1.558 0.003 2.337 0.010z" />
<glyph unicode="&#xe944;" glyph-name="portugal" horiz-adv-x="6814" d="M665.231 529.231c0.004-0.706 0.007-1.541 0.007-2.376 0-58.52-12.228-114.184-34.269-164.576-21.808-49.951-52.719-94.86-90.655-132.734-38.152-38.024-83.234-69.111-133.185-91.2-51.702-23.167-108.74-36.25-168.772-36.804l-0.202-162.463h-238.154v1016.615h238.154c60.305-0.766 117.314-14.057 168.808-37.384 50.255-22.356 95.504-53.415 134.025-91.294 37.88-37.817 68.79-82.727 90.549-132.548 21.702-50.126 33.7-105.29 33.7-163.257 0-0.696-0.002-1.391-0.005-2.086zM238.154 334.154c26.93 0.809 52.202 7.075 75.019 17.722 22.648 10.203 43.021 24.272 60.392 41.38 16.675 17.205 30.194 37.635 39.509 60.24 9.836 23.080 15.285 48.463 15.285 75.119s-5.449 52.039-15.295 75.096c-9.381 22.604-22.889 43.022-39.584 60.349-17.287 17.023-37.661 31.092-60.174 41.258-22.956 10.62-48.217 16.878-74.841 17.75zM1280.615 960c72.932-0.605 142.020-16.402 204.467-44.372 60.65-25.947 115.32-62.666 161.824-107.76 45.947-45.047 83.484-98.746 109.953-158.444 26.968-60.968 41.919-128.288 41.919-199.099 0-1.034-0.003-2.067-0.010-3.099 0.007-0.759 0.011-1.845 0.011-2.932 0-70.55-14.952-137.607-41.86-198.176-26.499-59.866-64.040-113.57-110.062-158.648-46.461-45.035-101.129-81.752-161.526-107.678-62.928-26.754-132.095-41.536-204.715-41.536s-141.787 14.781-204.658 41.499c-60.291 25.797-114.783 62.535-160.976 107.722-45.614 45.198-82.927 98.87-109.362 158.441-26.985 60.768-41.937 127.826-41.937 198.375 0 1.087 0.004 2.172 0.011 3.257-0.006 0.707-0.010 1.74-0.010 2.774 0 70.811 14.95 138.131 41.866 198.974 26.534 59.727 63.843 113.395 109.492 158.666 46.132 45.129 100.624 81.866 160.915 107.654 62.638 27.978 131.726 43.775 204.437 44.379zM1280.615 176c0.581-0.004 1.268-0.007 1.955-0.007 38.618 0 75.386 7.923 108.767 22.231 32.672 14.749 62.063 35.471 86.759 60.794 25.485 24.385 46.21 53.383 60.891 85.709 14.505 33.225 22.536 69.926 22.536 108.504s-8.031 75.279-22.512 108.524c-14.735 32.294-35.455 61.287-60.759 85.536-24.875 25.438-54.26 46.154-86.916 60.906-33.901 14.334-71.234 22.242-110.414 22.242s-76.513-7.908-110.489-22.215c-32.592-14.749-61.981-35.469-86.686-60.781-25.42-24.425-46.134-53.411-60.879-85.695-14.515-33.236-22.546-69.938-22.546-108.515s8.031-75.279 22.512-108.524c14.75-32.288 35.468-61.279 60.761-85.538 24.834-25.499 54.23-46.225 86.926-60.914 33.787-15.395 71.155-24.18 110.516-24.715zM2219.077 201.231l-36.923-4.308h-38.154v-256.615h-236.308v1011.692h238.154c59.923-0.621 116.94-12.311 169.346-33.118 48.678-19.88 93.292-47.899 132.043-82.366 37.187-32.472 67.987-72.121 90.235-116.778 21.958-44.161 34.229-93.612 34.229-145.929 0-0.744-0.002-1.488-0.007-2.231 0.013-0.971 0.021-2.252 0.021-3.535 0-54.084-12.969-105.14-35.966-150.226-23.623-46.929-56.765-87.94-96.922-120.671l227.637-363.607h-281.231zM2144.615 430.154c25.604 0.943 49.807 5.6 72.521 13.45 21.742 7.18 42.15 17.843 60.387 31.28 15.806 11.718 29.376 26.662 39.634 43.814 9.663 16.219 15.151 34.946 15.151 54.955 0 0.176 0 0.353-0.001 0.529 0.004 0.289 0.006 0.663 0.006 1.037 0 19.615-5.495 37.947-15.031 53.54-10.492 17.107-24.042 31.834-39.939 43.561-18.055 13.322-38.464 23.986-60.424 31.241-23.084 7.945-47.948 12.618-73.798 13.354zM3300.923 960v-234.462h-198.769v-788.308h-238.769v788.308h-196.923v234.462h634.462zM3795.692-62.769c-1.217-0.014-2.655-0.021-4.094-0.021-159.175 0-296.087 95.322-356.766 231.996-20.362 46.166-31.86 97.072-32.369 150.605l-0.001 640.189h238.154v-638.154c-0.001-0.175-0.001-0.381-0.001-0.588 0-42.084 17.976-79.97 46.669-106.397 28.176-26.772 66.229-43.184 108.116-43.184 0.752 0 1.503 0.005 2.252 0.016 0.731-0.019 1.725-0.029 2.723-0.029 21.242 0 41.423 4.541 59.625 12.705 18.132 8.091 34.434 19.269 48.336 32.888 13.787 13.397 24.839 29.583 32.247 47.649 7.746 18.487 12.048 38.887 12.048 60.293 0 0.768-0.006 1.535-0.017 2.3l0.001 632.5h232v-632.615c0.058-2.403 0.091-5.235 0.091-8.073 0-51.122-10.674-99.751-29.915-143.779-19.7-45.518-47.72-86.357-82.171-120.758-34.514-34.481-75.315-62.667-120.536-82.691-47.088-21.016-99.030-32.955-153.686-33.619zM5169.231 507.692v-570.462h-237.538v25.231c-23.161-8.553-50.527-15.631-78.789-19.997-27.186-4.227-55.719-6.464-84.775-6.464-0.045 0-0.090 0-0.136 0-70.722 0.856-137.855 15.247-199.248 40.693-63.35 25.537-120.469 63.693-168.134 111.311-48.016 46.509-86.395 102.661-112.052 165.367-24.836 60.044-38.619 126.022-38.713 195.208 0.173 69.478 13.947 135.655 38.797 196.11 25.499 62.73 63.89 119.095 111.852 165.656 47.884 47 104.997 84.548 168.382 109.685 61.483 24.922 128.849 38.691 199.43 38.691s137.948-13.769 199.558-38.768c63.557-25.599 120.873-63.752 168.775-111.364l-169.256-166.129c-25.684 26.125-56.626 46.992-91.121 60.897-33.157 13.425-69.536 20.844-107.648 20.844s-74.492-7.419-107.774-20.892c-34.389-13.803-65.34-34.678-90.953-60.805-25.945-25.466-46.768-55.961-60.916-89.933-14.026-32.49-21.799-68.239-21.799-105.803s7.773-73.313 21.799-105.726c27.672-64.396 78.595-116.316 142.188-145.248 29.517-13.234 61.742-21.594 95.606-24.049 7.071-0.508 14.237-0.767 21.463-0.767 27.053 0 53.258 3.629 78.155 10.427 31.223 8.278 60.38 22.239 86.109 40.677l-0.8 50.532h-206.769v235.077zM5876.923-62.769l-41.231 123.077h-325.538l-42.462-123.077h-252.308l352.615 1018.462h225.231l334.154-1018.462zM5592 295.385h168l-81.846 246.154zM6814.154-62.769h-616v1020.308h238.154v-785.846h377.846v-234.462z" />
<glyph unicode="&#xe945;" glyph-name="verified_user" d="M426 234l342 342-60 60-282-280-110 110-60-60zM512 918l384-172v-256c0-236-164-458-384-512-220 54-384 276-384 512v256z" />
<glyph unicode="&#xe946;" glyph-name="megaphone" d="M881.818 600.064c-81.101 188.723-211.558 332.288-277.555 305.51-112.077-45.619 66.765-264.397-483.686-488.090-47.565-19.405-59.597-96.666-39.68-142.95 19.866-46.182 84.89-92.211 132.454-72.909 8.243 3.379 38.451 13.107 38.451 13.107 33.946-45.619 69.478-18.586 82.125-47.514 15.155-34.816 48.077-110.49 59.29-136.192s36.608-49.51 55.040-42.496c18.381 7.014 80.998 30.822 104.96 39.885 23.962 9.114 29.645 30.515 22.323 47.309-7.885 18.176-40.243 23.501-49.51 44.698-9.216 21.094-39.373 88.986-48.026 110.387-11.776 29.082 13.261 52.787 49.664 56.525 250.573 26.214 297.421-128.614 382.72-93.901 65.894 26.88 52.48 218.061-28.57 406.63zM853.606 294.093c-14.694-5.888-113.306 71.782-176.282 218.47-63.027 146.586-55.091 280.576-40.448 286.566 14.643 5.888 110.848-87.91 173.824-234.496 63.027-146.586 57.549-264.55 42.906-270.541z" />
<glyph unicode="&#xe947;" glyph-name="history" horiz-adv-x="878" d="M877.714 448c0-241.714-197.143-438.857-438.857-438.857-130.857 0-254.286 57.714-337.714 158.286-5.714 7.429-5.143 18.286 1.143 24.571l78.286 78.857c4 3.429 9.143 5.143 14.286 5.143 5.143-0.571 10.286-2.857 13.143-6.857 56-72.571 140-113.714 230.857-113.714 161.143 0 292.571 131.429 292.571 292.571s-131.429 292.571-292.571 292.571c-74.857 0-145.714-28.571-198.857-78.286l78.286-78.857c10.857-10.286 13.714-26.286 8-39.429-5.714-13.714-18.857-22.857-33.714-22.857h-256c-20 0-36.571 16.571-36.571 36.571v256c0 14.857 9.143 28 22.857 33.714 13.143 5.714 29.143 2.857 39.429-8l74.286-73.714c80.571 76 189.714 121.143 302.286 121.143 241.714 0 438.857-197.143 438.857-438.857zM512 612.571v-256c0-10.286-8-18.286-18.286-18.286h-182.857c-10.286 0-18.286 8-18.286 18.286v36.571c0 10.286 8 18.286 18.286 18.286h128v201.143c0 10.286 8 18.286 18.286 18.286h36.571c10.286 0 18.286-8 18.286-18.286z" />
<glyph unicode="&#xe948;" glyph-name="award" d="M320 383.977v-415.977l192 192 192-192v415.977c-53.482-40.172-119.961-63.977-192-63.977s-138.518 23.804-192 63.977v0 0zM512 352c159.058 0 288 128.942 288 288s-128.942 288-288 288c-159.058 0-288-128.942-288-288s128.942-288 288-288v0zM512 553.846l-112-73.846 48 128-96 64h112l48 128 48-128h112l-96-64 48-128-112 73.846z" />
<glyph unicode="&#xe949;" glyph-name="pig-coin" d="M208.5 234.6c0 0-117 80-117 237.8 0 114.2 58.8 193.4 134.6 244.4 24.3-50.6 76-85.5 135.8-85.5 83.2 0 150.6 67.4 150.6 150.6 0 2.8-0.1 5.5-0.2 8.3 103.6-7.5 135.8-35.9 135.8-35.9s45.6 33.1 93.8 60.9c36.9 14.4 45.5 16.5 71.2 8.2 20.5 0 7.6-34.2-0.6-46.5s-48-80.4-48-80.4 83.5-86 89.7-142.6c0 1 39.3 0.3 60.9 0.3s19.5-23.5 19.5-23.5l-0.6-165.6c0 0 1.3-23.5-18.2-23.5s-61-0.5-61-0.5-58.4-84.8-95.4-100.2c0-1 32-87.9 32-87.9s15.4-26.7-12.3-37c-27.7-10.3-100.1-40.6-131-49.9-30.8-9.2-35.2 11.7-35.2 11.7l-30.5 65.9-199.7-0.3-30.5-68c0 0-5.9-31.5-47-14.1-41.1 17.5-86 38.2-119.9 55.6-33.9 17.5-11.6 50.1-11.6 50.1l34.8 67.6zM713.7 554.6c0-18.7 15.2-33.9 33.9-33.9s33.9 15.2 33.9 33.9-15.2 33.9-33.9 33.9c-18.7 0-33.9-15.2-33.9-33.9v0zM713.7 554.6c0-18.7 15.2-33.9 33.9-33.9s33.9 15.2 33.9 33.9-15.2 33.9-33.9 33.9c-18.7 0-33.9-15.2-33.9-33.9v0zM208.5 234.6c0 0-117 80-117 237.8 0 114.2 58.8 193.4 134.6 244.4 24.3-50.6 76-85.5 135.8-85.5 83.2 0 150.6 67.4 150.6 150.6 0 2.8-0.1 5.5-0.2 8.3 103.6-7.5 135.8-35.9 135.8-35.9s45.6 33.1 93.8 60.9c36.9 14.4 45.5 16.5 71.2 8.2 20.5 0 7.6-34.2-0.6-46.5s-48-80.4-48-80.4 83.5-86 89.7-142.6c0 1 39.3 0.3 60.9 0.3s19.5-23.5 19.5-23.5l-0.6-165.6c0 0 1.3-23.5-18.2-23.5s-61-0.5-61-0.5-58.4-84.8-95.4-100.2c0-1 32-87.9 32-87.9s15.4-26.7-12.3-37c-27.7-10.3-100.1-40.6-131-49.9-30.8-9.2-35.2 11.7-35.2 11.7l-30.5 65.9-199.7-0.3-30.5-68c0 0-5.9-31.5-47-14.1-41.1 17.5-86 38.2-119.9 55.6-33.9 17.5-11.6 50.1-11.6 50.1l34.8 67.6zM248.3 777c0 64.1 52 116.1 116.1 116.1s116.1-52 116.1-116.1c0-64.1-52-116.1-116.1-116.1-64.1-0.1-116.1 51.9-116.1 116.1v0z" />
<glyph unicode="&#xe94a;" glyph-name="pig" d="M208.5 234.6l-34.8-67.6c0 0-22.3-32.6 11.6-50.1 33.9-17.4 78.8-38.2 119.9-55.6s46.9 14.1 46.9 14.1l30.5 67.9 199.6 0.3 30.5-65.9c0 0 4.4-21 35.2-11.7s103.2 39.6 130.9 49.9c27.7 10.3 12.3 37 12.3 37s-32 86.9-32 87.9c37 15.4 95.4 100.2 95.4 100.2s41.5 0.5 61 0.5c19.6 0 18.2 23.5 18.2 23.5l0.6 165.5c0 0 2 23.5-19.5 23.5s-60.9 0.7-60.9-0.3c-6.2 56.5-89.7 142.5-89.7 142.5s39.8 68.1 48 80.4c8.3 12.3 21.2 46.5 0.6 46.5-25.7 8.3-34.2 6.2-71.2-8.2-48.3-27.7-93.8-60.8-93.8-60.8s-39.9 35.2-173.7 37.6c-133.8 2.3-382.6-84.5-382.6-319.3 0.1-157.9 117-237.8 117-237.8v0zM713.5 554.4c0 18.7 15.2 33.9 33.9 33.9s33.9-15.2 33.9-33.9-15.2-33.9-33.9-33.9-33.9 15.2-33.9 33.9zM269.9 626.1c-9.2 14.9 13.2 30.3 13.2 30.3s41.8 35 96.5 51c55.6 16.4 122.1 10.2 122.1 10.2-0.2-0.6 19.9-0.7 20.4-17.3-0.1-13.4-10.6-13.7-19.3-16.3 0 0-59.1 8-115.2-8.5-54.2-16-91.1-50.2-91.1-50.2-8.7-2.6-15.8-12-26.6 0.8v0z" />
<glyph unicode="&#xe94b;" glyph-name="Ativo-2" horiz-adv-x="8980" d="M372.25-65q-217.25 0-294.75 121.25t-77.5 395.5q0 275 78.25 391.75t294 116.5c101.34-1.351 198.968-14.491 292.426-38.108l-14.676-128.392c-78.354 14.711-168.536 23.167-260.678 23.25q-130.322 0-176.822-77.5t-46-291.25q0-213.75 45-291t175-77.5c93.161 0.143 184.37 8.048 273.145 23.102l-5.395-134.602c-84.303-19.85-181.44-31.811-281.17-32.992zM1416.25-48v428.75h-428.5v-428.75h-160.75v992h160.75v-422.75h428.5v422.75h162.25v-992zM1720.5-48l244.75 992h320l246.25-992h-162.25l-53.5 213h-381l-53.5-213zM2089.75 810l-123-502.5h317l-121.5 502.5zM3181.75 944h168.25l-243.25-992h-316l-243.25 992h168l197-850h72.5zM3493-48v992h625v-140.5h-464.25v-280.75h378v-139h-378v-289.75h464.75v-142zM4990.5-48h-365.5v1006.5h366.5q357.75 0 357.75-489.5-1-517-358.75-517zM5255.5 469q0 408.5-265 408.5h-276.5v-845.75h276.5q265 0 265 437.25zM5559.75-48v1006.5h90.25v-1006.5zM5991.25 348.75v-396.75h-89.75v1006.5h369.25q157.75 0 235.25-71.75t77.5-226.75q0-241.75-194-294l207-414.25h-100l-198.5 396.75zM6491.25 658.75q0 113-53.5 166.5t-166.5 53.5h-280v-450h279.5q220-0.25 220.25 231.25zM6792-48v1006.5h604v-81h-514.25v-373.75h427.25v-79.75h-427.25v-392.5h514v-79.75zM7484.25 877.5v81h725v-81h-316.5v-925h-89.75v925zM8192.5-48l289.75 1006.5h210l288.25-1006.5h-88.25l-81.25 278h-450l-79.75-278zM8547.25 880.25l-163.5-570.25h405.5l-164.25 570.25z" />
<glyph unicode="&#xe94c;" glyph-name="facebook-c" d="M512 939.52c-271.462 0-491.52-220.058-491.52-491.52s220.058-491.52 491.52-491.52 491.52 220.058 491.52 491.52-220.058 491.52-491.52 491.52zM628.429 599.859h-73.882c-8.755 0-18.483-11.52-18.483-26.829v-53.35h92.416l-13.978-76.083h-78.438v-228.403h-87.194v228.403h-79.104v76.083h79.104v44.749c0 64.205 44.544 116.378 105.677 116.378h73.882v-80.947z" />
<glyph unicode="&#xe94d;" glyph-name="twitter-c" d="M512 939.52c-271.462 0-491.52-220.058-491.52-491.52s220.058-491.52 491.52-491.52 491.52 220.058 491.52 491.52-220.058 491.52-491.52 491.52zM711.936 536.883c0.205-4.198 0.256-8.397 0.256-12.493 0-128-97.331-275.507-275.405-275.507-54.682 0-105.574 15.974-148.378 43.52 7.526-0.922 15.258-1.28 23.091-1.28 45.363 0 87.091 15.411 120.218 41.421-42.342 0.819-78.080 28.774-90.419 67.174 5.888-1.075 11.93-1.69 18.176-1.69 8.806 0 17.408 1.178 25.498 3.379-44.288 8.909-77.67 48.026-77.67 94.925v1.178c13.056-7.219 28.006-11.622 43.878-12.134-26.010 17.408-43.059 47.002-43.059 80.64 0 17.715 4.762 34.406 13.107 48.691 47.77-58.573 119.040-97.075 199.526-101.222-1.69 7.117-2.509 14.49-2.509 22.118 0 53.402 43.315 96.819 96.819 96.819 27.802 0 52.992-11.776 70.656-30.618 22.067 4.403 42.752 12.39 61.44 23.501-7.219-22.579-22.528-41.574-42.547-53.606 19.61 2.406 38.246 7.578 55.603 15.309-12.954-19.405-29.389-36.506-48.282-50.125z" />
<glyph unicode="&#xe94e;" glyph-name="clock" d="M658.744 210.744l-210.744 210.746v282.51h128v-229.49l173.256-173.254zM512 960c-282.77 0-512-229.23-512-512s229.23-512 512-512 512 229.23 512 512-229.23 512-512 512zM512 64c-212.078 0-384 171.922-384 384s171.922 384 384 384c212.078 0 384-171.922 384-384s-171.922-384-384-384z" />
<glyph unicode="&#xe94f;" glyph-name="clock2" d="M512 960c-282.77 0-512-229.23-512-512s229.23-512 512-512 512 229.23 512 512-229.23 512-512 512zM658.744 210.744l-210.744 210.746v282.51h128v-229.49l173.256-173.254-90.512-90.512z" />
<glyph unicode="&#xe950;" glyph-name="instagram-c" d="M665.6 448c0-84.838-68.762-153.6-153.6-153.6s-153.6 68.762-153.6 153.6c0 8.755 0.922 17.306 2.509 25.6h-53.709v-204.646c0-14.234 11.52-25.754 25.754-25.754h358.144c14.182 0 25.702 11.52 25.702 25.754v204.646h-53.709c1.587-8.294 2.509-16.845 2.509-25.6zM512 345.6c56.525 0 102.4 45.875 102.4 102.4s-45.875 102.4-102.4 102.4-102.4-45.875-102.4-102.4 45.875-102.4 102.4-102.4zM634.88 555.52h61.389c8.499 0 15.411 6.912 15.411 15.36v61.389c0 8.499-6.912 15.411-15.411 15.411h-61.389c-8.499 0-15.411-6.912-15.411-15.411v-61.389c0.051-8.448 6.963-15.36 15.411-15.36zM512 939.52c-271.462 0-491.52-220.058-491.52-491.52s220.058-491.52 491.52-491.52c271.462 0 491.52 220.058 491.52 491.52s-220.058 491.52-491.52 491.52zM768 248.883c0-31.283-25.6-56.883-56.883-56.883h-398.234c-31.283 0-56.883 25.6-56.883 56.883v398.234c0 31.283 25.6 56.883 56.883 56.883h398.234c31.283 0 56.883-25.6 56.883-56.883v-398.234z" />
<glyph unicode="&#xe951;" glyph-name="youtube-c" d="M594.074 456.55l-114.995 53.658c-10.035 4.659-18.278-0.563-18.278-11.674v-101.069c0-11.11 8.243-16.333 18.278-11.674l114.944 53.658c10.086 4.71 10.086 12.39 0.051 17.101zM512 939.52c-271.462 0-491.52-220.058-491.52-491.52s220.058-491.52 491.52-491.52 491.52 220.058 491.52 491.52-220.058 491.52-491.52 491.52zM512 248.32c-251.597 0-256 22.682-256 199.68s4.403 199.68 256 199.68 256-22.682 256-199.68-4.403-199.68-256-199.68z" />
<glyph unicode="&#xe952;" glyph-name="linkedin-c" d="M512 939.52c-271.462 0-491.52-220.058-491.52-491.52s220.058-491.52 491.52-491.52 491.52 220.058 491.52 491.52-220.058 491.52-491.52 491.52zM391.68 244.275h-99.533v320.307h99.533v-320.307zM341.299 603.904c-31.437 0-51.763 22.272-51.763 49.818 0 28.109 20.941 49.715 53.043 49.715s51.763-21.606 52.378-49.715c0-27.546-20.275-49.818-53.658-49.818zM755.2 244.275h-99.533v177.51c0 41.318-14.438 69.376-50.432 69.376-27.494 0-43.827-18.995-51.046-37.274-2.662-6.502-3.328-15.718-3.328-24.883v-184.678h-99.584v218.112c0 39.987-1.28 73.421-2.611 102.195h86.477l4.557-44.493h1.997c13.107 20.89 45.21 51.712 98.918 51.712 65.485 0 114.586-43.878 114.586-138.189v-189.389z" />
<glyph unicode="&#xe953;" glyph-name="google-plus-c" horiz-adv-x="878" d="M524 442.857c0 12.571-1.143 24.571-3.429 36.571h-206.857v-75.429h124c-9.143-60.571-66.286-94.286-124-94.286-76 0-136.571 62.857-136.571 138.286s60.571 138.286 136.571 138.286c32 0 64-10.857 87.429-33.714l59.429 57.714c-40.571 37.714-91.429 57.143-146.857 57.143-121.714 0-219.429-98.286-219.429-219.429s97.714-219.429 219.429-219.429c126.286 0 210.286 89.143 210.286 214.286zM721.143 416.571h62.286v62.857h-62.286v62.857h-62.857v-62.857h-62.857v-62.857h62.857v-62.857h62.857v62.857zM877.714 448c0-242.286-196.571-438.857-438.857-438.857s-438.857 196.571-438.857 438.857 196.571 438.857 438.857 438.857 438.857-196.571 438.857-438.857z" />
<glyph unicode="&#xe954;" glyph-name="plus-18" d="M323.931 273.622v278.009h-64.268v71.243h152.951v-349.252h-88.683zM745.907 532.699c0-30.39-16.441-57.293-43.842-72.242 38.358-15.939 62.275-49.322 62.275-88.182 0-62.773-55.802-102.633-142.987-102.633-87.188 0-142.987 39.361-142.987 101.135 0 39.859 25.906 73.74 66.261 89.679-29.394 16.444-48.326 44.34-48.326 74.73 0 55.805 48.827 91.174 124.553 91.174 76.723 0 125.052-36.369 125.052-93.662zM562.065 379.745c0-29.397 20.928-45.838 59.289-45.838s59.784 15.939 59.784 45.838c0 28.893-21.423 45.339-59.784 45.339-38.365 0-59.289-16.444-59.289-45.339zM571.035 527.717c0-24.916 17.935-38.86 50.318-38.86s50.318 13.947 50.318 38.86c0 25.9-17.935 40.351-50.318 40.351-32.386 0-50.318-14.451-50.318-40.351zM911.908 583.447c14.744-43.515 22.223-89.029 22.223-135.448 0-232.76-189.366-422.126-422.129-422.126s-422.132 189.366-422.132 422.126c0 232.766 189.366 422.126 422.129 422.126 46.426 0 91.94-7.473 135.448-22.223v93.939c-43.948 12.047-89.337 18.159-135.445 18.159-282.315 0-511.998-229.683-511.998-512.002s229.683-512.002 511.998-512.002 511.995 229.683 511.995 512.002c0 46.105-6.109 91.498-18.156 135.448h-93.933zM886.359 822.649v98.174h-70.595v-98.174h-97.585v-70.589h97.585v-98.171h70.595v98.171h98.167v70.589z" />
<glyph unicode="&#xe955;" glyph-name="nmi" horiz-adv-x="1287" d="M738.757-62.361c-46.972 3.041-76.371 8.448-122.498 21.965-56.434 16.727-110.84 45.282-165.753 86.678-15.376 11.658-64.882 60.658-78.399 77.554-22.554 27.878-42.801 59.309-59.486 92.825-6.072 12.777-10.803 22.576-11.986 24.942l-2.197 4.224-68.599 1.69-14.7 28.724c-8.11 15.714-25.682 49.675-39.030 75.189s-28.893 55.589-34.637 66.74-17.234 33.117-25.344 48.999-15.376 29.4-16.22 30.244-1.521-0.676-1.521-4.224c0-3.041-0.169-58.968-0.338-124.019s-0.507-119.288-0.845-120.471c-0.676-1.521-11.996-2.028-48.83-2.028-46.803 0-47.985 0-47.985 3.379-0.169 1.859-0.169 86.171-0.169 187.549s0 186.873 0.169 190.083v5.914h135.17l2.197-3.717c1.352-2.197 9.462-17.572 18.079-34.299s20.951-40.72 27.541-53.223c14.869-28.724 34.975-67.754 56.096-108.981 9.124-17.741 17.403-33.286 18.417-34.806 1.352-2.028 1.69 7.772 1.183 36.665-0.507 38.017 2.703 87.692 6.59 101.209 0.975 3.678 1.863 8.263 2.472 12.935 1.245 9.030 8.848 40.288 13.917 56.34 18.586 60.827 55.589 128.243 95.295 174.032 20.276 23.317 33.793 37.341 45.62 47.31 7.603 6.59 15.038 13.010 16.558 14.531 9.124 8.955 50.858 38.524 69.444 49.168 33.594 19.403 72.496 36.449 113.334 49.090 24.54 7.174 62.557 14.44 91.956 18.157 15.207 1.859 109.15 2.872 112.022 1.014 0.676-0.338 8.955-1.521 18.248-2.534 14.531-1.521 27.203-3.717 58.968-10.307 6.59-1.521 33.455-9.631 44.437-13.517 2.872-1.183 5.407-2.872 5.576-3.886 0.845-12.334 0.676-46.972-0.338-48.661s-6.252-0.507-22.134 4.9c-31.596 10.645-50.351 15.038-96.816 22.641-28.555 4.562-119.119 2.197-142.774-3.717-3.21-0.845-11.658-2.703-18.586-4.055-49.337-9.631-103.574-31.596-149.025-60.827-60.827-38.693-107.46-86.171-145.477-147.505-20.276-32.948-42.241-83.299-50.182-115.74-9.969-39.875-12.672-55.589-16.22-93.943-2.703-29.231-2.703-33.117 0-65.051 3.886-45.789 11.658-84.313 25.513-125.371 4.562-13.686 25.682-61.334 27.879-63.361 2.346-3.401 4.757-7.379 6.941-11.495 16.883-31.083 43.41-65.89 72.472-94.951 63.023-63.361 137.705-104.25 226.41-124.019 40.213-9.124 68.092-11.658 110.671-10.645 44.268 1.014 69.106 4.393 109.826 14.362 53.73 13.348 114.219 42.241 158.994 75.695 38.186 28.724 79.751 71.978 104.757 109.15 68.43 101.547 94.619 227.931 72.485 349.415-4.562 24.838-14.531 60.151-22.979 80.595-7.603 18.586-8.955 17.403 21.12 17.403 18.755 0 26.358-0.507 27.541-2.197 4.731-5.914 19.938-57.616 24.838-83.975 6.927-37.341 8.279-54.913 8.448-98.843 0.169-56.096-3.379-84.988-16.896-136.86-14.193-55.251-40.213-111.347-74.006-159.67-33.962-48.83-81.44-95.464-128.581-126.722-10.138-6.759-20.782-13.855-23.486-15.714-5.914-4.055-48.999-26.020-61.165-31.089-7.941-3.379-37.003-14.193-46.296-17.403-26.020-8.617-62.854-16.558-93.774-20.107-48.83-5.745-63.53-6.083-103.912-3.379zM0.896 88.151c-1.183 2.197-1.183 65.389 0 66.74 0.507 0.507 147.843 0.845 212.893 0.507h6.252v-33.624c0-33.455 0-33.624-3.717-34.637-2.197-0.507-51.196-1.014-108.981-1.014-82.285 0.034-105.433 0.541-106.447 2.028zM438.003 440.135v193.463h76.033c59.475 0 76.202-0.507 76.878-2.197 0.338-1.014 5.914-18.417 12.334-38.355s20.276-62.516 30.751-94.619c32.272-99.857 34.468-106.447 35.651-106.447 0.507 0 2.365 4.393 4.055 9.631s5.745 18.586 9.293 29.231 12.672 38.861 20.276 62.516 16.727 51.872 20.276 62.516 9.969 30.413 14.362 43.93 8.617 26.527 9.631 29.231l1.859 4.562 75.357-0.338 75.357-0.507v-385.236h-96.309l-0.845 136.86-0.845 136.691-3.886-12.503c-2.197-6.927-4.562-14.193-5.407-16.051s-7.603-22.81-15.376-46.465-18.924-58.63-25.175-77.723-14.869-45.62-19.262-59.137-8.617-26.020-9.293-27.879-3.717-10.307-6.252-18.586l-4.9-15.207h-86.171l-9.631 28.724c-5.238 15.714-19.262 58.292-31.089 94.619s-27.71 84.819-35.482 108.136l-14.024 42.241-1.014-273.72-48.543-0.541-48.661-0.338zM1012.815 393.163l0.507 146.66h94.619l0.507-146.66 0.338-146.491h-96.309zM1027.177 631.232c-0.676 0.676-1.183 16.896-1.183 35.989s-0.676 35.82-1.352 36.834c-1.014 1.521-11.152 2.197-37.51 2.534l-36.327 0.507-0.507 30.413c-0.169 16.727 0 32.103 0.507 34.131 0.845 3.717 1.183 3.886 37.679 4.224l36.665 0.507 0.456 36.631 0.338 36.834h69.275l0.338-36.834 0.507-36.665 74.344-1.69v-67.585l-35.651-0.507c-27.034-0.338-36.327-1.014-37.679-2.534s-2.028-15.376-2.197-37.679l-0.507-35.313-33.117-0.507c-18.028-0.135-33.404 0.203-34.080 0.71z" />
</font>
</defs>
</svg>
